<?xml version="1.0" standalone="no"?>
<!DOCTYPE svg PUBLIC "-//W3C//DTD SVG 1.1//EN" "http://www.w3.org/Graphics/SVG/1.1/DTD/svg11.dtd" >
<!--
2013-9-15: Created.
-->
<svg xmlns="http://www.w3.org/2000/svg">
<metadata>
Created by FontForge 20120731 at Sun Sep 15 15:49:34 2013
 By Tyler Wanlass
Created by Tyler Wanlass with FontForge 2.0 (http://fontforge.sf.net)
</metadata>
<defs>
<font id="picto-foundry-clothing" horiz-adv-x="512" >
  <font-face 
    font-family="picto-foundry-clothing"
    font-weight="100"
    font-stretch="normal"
    units-per-em="512"
    panose-1="2 0 2 3 0 0 0 0 0 0"
    ascent="448"
    descent="-64"
    bbox="-0.75 -64 512.655 448"
    underline-thickness="25.6"
    underline-position="-51.2"
    unicode-range="U+F100-F133"
  />
    <missing-glyph />
    <glyph glyph-name="uniF100" unicode="&#xf100;" 
d="M475 195c1 -3 37 -81 37 -125c0 -55 -53 -70 -256 -70c-196 0 -256 17 -256 70c0 36 33 108 41 123c1 118 97 232 215 232c114 0 207 -106 214 -219v0zM393 340c-33 37 -74 60 -117 65c21 -24 58 -70 79 -117c23 -52 20 -108 17 -132c39 12 66 27 80 36
c0 53 -22 107 -59 148zM338 281c-22 51 -66 101 -83 120c-17 -19 -62 -69 -84 -120c-24 -55 -16 -115 -14 -130c28 -7 62 -13 99 -13c36 0 68 5 96 12c2 14 10 76 -14 131zM118 340c-37 -41 -58 -96 -58 -149v0c12 -8 39 -23 78 -35c-3 24 -7 80 16 132c21 47 58 92 79 116
c-43 -6 -83 -28 -115 -64zM256 19c221 0 237 20 237 51s-21 85 -30 107c-26 -17 -100 -58 -207 -58c-104 0 -176 38 -203 55c-12 -25 -34 -77 -34 -104s18 -51 237 -51zM247 439c0 6 3 9 9 9s9 -3 9 -9s-3 -10 -9 -10s-9 4 -9 10z" />
    <glyph glyph-name="uniF101" unicode="&#xf101;" 
d="M498 398c18 -18 18 -49 0 -67l-174 -174c1 -5 2 -11 2 -17c0 -18 -6 -34 -19 -47l-94 -93c-13 -13 -29 -20 -47 -20c-6 0 -12 2 -17 3l-32 -33c-9 -9 -22 -14 -34 -14s-24 5 -33 14l-36 36c-18 18 -18 49 0 67l32 32c-2 6 -2 12 -2 18c0 18 6 34 19 47l94 93
c13 13 29 20 47 20c6 0 12 -1 18 -3l173 174c9 9 22 14 34 14s24 -5 33 -14zM103 -37l28 28c-4 3 -9 6 -12 9l-56 56c-3 3 -6 6 -8 10l-28 -27c-5 -5 -8 -12 -8 -20s3 -15 8 -20l36 -36c5 -5 12 -8 20 -8s15 3 20 8zM293 107c9 9 14 20 14 33s-5 25 -14 34l-4 4l-76 -76
l-13 13l76 76l-25 25l-77 -76l-13 14l76 76v0c-9 9 -20 14 -33 14s-25 -5 -34 -14l-94 -94c-9 -9 -13 -20 -13 -33s4 -25 13 -34l57 -56c9 -9 20 -14 33 -14s25 5 34 14zM485 345c5 5 8 12 8 20s-3 15 -8 20l-36 36c-5 5 -12 8 -20 8s-15 -3 -20 -8l-169 -169
c4 -2 7 -6 10 -9l57 -56c3 -3 6 -7 9 -11zM317 272c0 13 6 19 19 19s18 -6 18 -19s-5 -19 -18 -19s-19 6 -19 19zM383 332c0 13 6 19 19 19s19 -6 19 -19s-6 -19 -19 -19s-19 6 -19 19z" />
    <glyph glyph-name="uniF102" unicode="&#xf102;" 
d="M491 158c35 -40 16 -176 14 -191l-1 -8h-270l-3 2c-21 18 -46 38 -57 44c-2 -7 -3 -21 -3 -35v-9h-171v186c0 84 28 284 29 293l2 8h238l-2 -10c0 -2 -21 -163 -6 -215c11 -39 108 -53 187 -53c6 0 11 1 16 1h1c10 0 19 -5 26 -13zM488 -23c1 9 2 21 3 34h-229
c-16 0 -28 10 -40 20c-11 9 -21 17 -33 17h-170v-68h133c1 43 13 44 17 45h2c9 0 33 -16 70 -48h247zM492 29c2 45 1 98 -15 117c-3 4 -7 6 -12 6h-17c-56 0 -188 6 -205 65c-14 48 0 174 5 212h-201c-5 -39 -28 -209 -28 -282v-81h170c19 0 32 -11 44 -21
c10 -8 19 -16 29 -16h230zM183 363c0 12 7 19 19 19s18 -7 18 -19s-6 -19 -18 -19s-19 7 -19 19zM183 293c0 12 7 19 19 19s18 -7 18 -19s-6 -18 -18 -18s-19 6 -19 18zM183 225c0 12 7 19 19 19s18 -7 18 -19s-6 -18 -18 -18s-19 6 -19 18zM215 164c0 12 6 18 18 18
s19 -6 19 -18s-7 -19 -19 -19s-18 7 -18 19zM278 133c0 12 7 18 19 18s18 -6 18 -18s-6 -19 -18 -19s-19 7 -19 19z" />
    <glyph glyph-name="uniF103" unicode="&#xf103;" 
d="M312 359l200 89v-234l-202 86c-10 -16 -28 -27 -49 -27c-22 0 -41 12 -51 30l-210 -89v234l208 -92c9 20 30 34 53 34c22 0 41 -13 51 -31zM19 243l184 78c-1 3 -1 6 -1 10c0 2 1 5 1 7l-184 81v-176zM261 292c22 0 39 17 39 39s-17 39 -39 39s-40 -17 -40 -39
s18 -39 40 -39zM493 243v176l-175 -77c1 -3 1 -7 1 -11c0 -5 -1 -10 -2 -14z" />
    <glyph glyph-name="uniF104" unicode="&#xf104;" 
d="M482 448l30 -350h-226l-13 67h-33l-11 -67h-229l30 350h452zM47 429l-3 -33h424l-3 33h-418zM213 117l8 52c-14 9 -43 36 -43 104c0 55 11 88 18 104h-153l-22 -260h192zM279 184c6 5 28 25 28 89s-8 95 -11 104h-79c-4 -6 -20 -36 -20 -104c0 -66 30 -85 37 -89h45z
M291 169l10 -52h190l-22 260h-153c4 -15 10 -48 10 -104c0 -69 -24 -96 -35 -104z" />
    <glyph glyph-name="uniF105" unicode="&#xf105;" 
d="M480 322c29 -13 65 -177 -22 -226c-23 -13 -44 -17 -63 -17c-54 0 -96 37 -132 37h-1c-36 -1 -76 -41 -132 -41c-21 0 -45 5 -72 21c-98 57 -46 208 -30 226h1v126h20v-129c121 -25 180 -134 190 -147c6 -7 14 -10 21 -10s14 3 18 10c8 13 62 119 182 146v130h20v-126z
M448 113c32 18 42 56 44 85c4 47 -10 90 -19 103c-72 -13 -134 -60 -177 -135c-1 -1 -2 -3 -2 -4c-7 -12 -20 -19 -34 -19s-27 6 -36 17c-2 2 -4 6 -7 10c-19 29 -76 113 -179 131c-9 -21 -25 -73 -16 -120c6 -31 22 -54 46 -68c22 -13 42 -19 62 -19c27 0 50 11 73 22
c20 9 39 19 59 19h1c20 0 40 -8 61 -17c22 -10 46 -20 71 -20c18 0 35 5 53 15z" />
    <glyph glyph-name="uniF106" unicode="&#xf106;" horiz-adv-x="427" 
d="M381 401c26 0 46 -20 46 -46v-372c0 -26 -20 -47 -46 -47h-334c-26 0 -47 21 -47 47v372c0 26 21 46 47 46h47l8 47h217v-2l2 2l8 -47h52zM320 342l-12 69l-78 -73l61 -76zM301 429h-179l89 -83zM114 411l-12 -69l30 -80l61 76zM409 -17v372c0 15 -13 27 -28 27h-49
l7 -42l-42 -115l-86 106l-86 -106l-42 115l8 42h-44c-15 0 -28 -12 -28 -27v-372c0 -15 13 -28 28 -28h334c15 0 28 13 28 28zM195 211c0 12 7 18 19 18s18 -6 18 -18s-6 -19 -18 -19s-19 7 -19 19zM195 118c0 12 7 18 19 18s18 -6 18 -18s-6 -19 -18 -19s-19 7 -19 19z
M195 25c0 12 7 18 19 18s18 -6 18 -18s-6 -19 -18 -19s-19 7 -19 19z" />
    <glyph glyph-name="uniF107" unicode="&#xf107;" 
d="M256 448c141 0 256 -115 256 -256s-115 -256 -256 -256s-256 115 -256 256s115 256 256 256zM256 -45c131 0 237 106 237 237s-106 237 -237 237s-237 -106 -237 -237s106 -237 237 -237zM255 396c112 0 204 -92 204 -204s-92 -204 -204 -204s-203 92 -203 204
s91 204 203 204zM255 7c102 0 185 83 185 185s-83 185 -185 185s-185 -83 -185 -185s83 -185 185 -185zM197 286c21 0 37 -17 37 -38s-16 -37 -37 -37s-37 16 -37 37s16 38 37 38zM197 230c10 0 19 8 19 18s-9 19 -19 19s-19 -9 -19 -19s9 -18 19 -18zM313 286
c21 0 38 -17 38 -38s-17 -37 -38 -37s-37 16 -37 37s16 38 37 38zM313 230c10 0 19 8 19 18s-9 19 -19 19s-18 -9 -18 -19s8 -18 18 -18zM313 169c21 0 38 -16 38 -37s-17 -38 -38 -38s-37 17 -37 38s16 37 37 37zM313 113c10 0 19 9 19 19s-9 18 -19 18s-18 -8 -18 -18
s8 -19 18 -19zM197 169c21 0 37 -16 37 -37s-16 -38 -37 -38s-37 17 -37 38s16 37 37 37zM197 113c10 0 19 9 19 19s-9 18 -19 18s-19 -8 -19 -18s9 -19 19 -19z" />
    <glyph glyph-name="uniF108" unicode="&#xf108;" 
d="M512 62l-90 -30l-44 147l9 -203h-266l9 203l-43 -143l-87 26l104 339l107 47l45 -206l45 206l107 -47zM352 329l44 -145l39 -128l54 18l-96 313l-79 35l-40 -184l-18 -85l-19 85l-39 184l-79 -34l-95 -314l50 -14l38 124l44 144l-7 -150l-9 -184h227l-8 184zM247 116
c0 6 4 9 10 9s9 -3 9 -9s-3 -10 -9 -10s-10 4 -10 10zM247 72c0 6 4 9 10 9s9 -3 9 -9s-3 -10 -9 -10s-10 4 -10 10zM247 28c0 6 4 9 10 9s9 -3 9 -9s-3 -9 -9 -9s-10 3 -10 9z" />
    <glyph glyph-name="uniF109" unicode="&#xf109;" 
d="M490 424c14 -15 22 -34 22 -55s-8 -40 -23 -55l-60 -60l-6 6l-303 -299v0c-13 -13 -30 -21 -50 -21c-38 0 -70 31 -70 69c0 12 3 23 8 33l152 393l18 -7l-135 -355c8 4 17 6 27 6c38 0 69 -32 69 -70v-5l271 269l-20 19l45 45c10 10 10 26 0 36s-26 10 -36 0l-45 -45
l-36 37l60 60c15 15 34 23 55 23s41 -8 56 -23zM70 -42c28 0 51 23 51 51s-23 51 -51 51s-52 -23 -52 -51s24 -51 52 -51z" />
    <glyph glyph-name="uniF10A" unicode="&#xf10a;" 
d="M512 448l-455 -456l86 356l-64 64c-6 3 -32 14 -50 -11c-21 -29 -1 -57 0 -58l-16 -12c-10 14 -23 49 0 82c24 34 61 25 77 16l2 -2l66 -66zM162 342l-69 -286l355 356z" />
    <glyph glyph-name="uniF10B" unicode="&#xf10b;" horiz-adv-x="337" 
d="M337 -64h-337s61 300 61 324l-19 188h52v-15c0 -26 49 -46 75 -46s74 20 74 46v15h56l-19 -185c0 -6 3 -30 9 -63c16 -96 48 -264 48 -264zM76 429h-13l15 -155h185l15 155h-16c-4 -38 -61 -61 -93 -61s-89 23 -93 61zM67 180c-13 -73 -34 -174 -44 -225h291
c-9 50 -28 152 -40 225h-207z" />
    <glyph glyph-name="uniF10C" unicode="&#xf10c;" horiz-adv-x="337" 
d="M0 -64c0 0 10 278 70 324c34 54 -28 188 -28 188h71v-15c0 -26 30 -46 56 -46s56 20 56 46v15h74c0 0 -75 -138 -28 -185s66 -327 66 -327h-337zM70 429c16 -41 40 -116 23 -165h154c-25 46 3 123 22 165h-26c-3 -35 -40 -61 -74 -61s-72 26 -75 61h-24zM82 245
c-9 -7 -34 -38 -51 -167c-7 -50 -10 -97 -11 -123h297c-8 103 -29 254 -56 291h-40l11 -231l-19 -1l-11 232h-64l-11 -232l-19 1l11 231h-37v-1z" />
    <glyph glyph-name="uniF10D" unicode="&#xf10d;" 
d="M502 258h10v-19s-12 -6 -12 -9v-71c0 -31 -25 -56 -56 -56h-125c-31 0 -56 25 -56 56v25h-14v-25c0 -31 -25 -56 -56 -56h-125c-31 0 -56 25 -56 56v71c0 3 -12 9 -12 9v19h12l108 190h79v-19h-68l-98 -171h447l-96 168h-68v19h79zM230 159v71c0 3 0 6 -1 9h-197
c-1 -3 -1 -6 -1 -9v-71c0 -21 16 -37 37 -37h125c21 0 37 16 37 37zM481 159v71c0 3 0 6 -1 9h-197c-1 -3 -1 -6 -1 -9v-71c0 -21 16 -37 37 -37h125c21 0 37 16 37 37z" />
    <glyph glyph-name="uniF10E" unicode="&#xf10e;" 
d="M499 261h13v-18h-16c-4 -68 -54 -145 -115 -145c-42 0 -79 37 -99 82h-49c-20 -45 -57 -81 -99 -81c-61 0 -110 77 -114 144h-20v18h14l106 187h79v-19h-68l-96 -168h443l-94 165h-68v19h79zM201 160c17 24 28 55 30 83h-193c2 -28 13 -59 30 -83c19 -27 43 -43 66 -43
s48 16 67 43zM240 199h35c-5 15 -8 29 -9 44h-17c-1 -15 -4 -29 -9 -44zM447 160c17 24 28 55 30 83h-193c2 -28 13 -59 30 -83c19 -27 44 -43 67 -43s47 16 66 43z" />
    <glyph glyph-name="uniF10F" unicode="&#xf10f;" 
d="M486 403v0h26v-18h-23c0 -17 -6 -33 -19 -46l-90 -91l-90 91c-10 10 -16 23 -18 36h-30c-2 -13 -8 -26 -18 -36l-91 -91l-90 91c-13 13 -19 30 -19 46h-24v18h27c3 10 8 18 16 26c12 12 28 19 44 19s33 -6 46 -19v0c12 12 29 19 45 19s34 -6 46 -19c10 -10 15 -22 17 -35
h31c2 13 7 25 17 35c12 12 29 19 45 19s32 -6 45 -19h1c12 12 29 19 45 19s32 -7 45 -19c8 -8 13 -16 16 -26zM210 352c18 18 18 46 0 64c-9 9 -20 13 -32 13s-23 -4 -32 -13v0l-13 -14l-14 14c-9 9 -20 13 -32 13s-23 -5 -31 -13c-17 -17 -18 -46 0 -64l77 -77zM457 352
c18 18 18 46 0 64c-9 9 -20 13 -32 13s-23 -4 -32 -13h-1l-13 -14l-13 14c-9 9 -20 13 -32 13s-24 -5 -32 -13c-17 -17 -17 -46 1 -64l77 -77z" />
    <glyph glyph-name="uniF110" unicode="&#xf110;" 
d="M484 372l28 -142c0 -26 -21 -47 -47 -47h-418c-26 0 -47 21 -47 47l28 142c0 26 31 47 57 47h342c26 0 57 -21 57 -47zM465 201c15 0 27 12 28 27l-28 140v2v2c0 14 -20 28 -38 28h-65l17 -88l-19 -3l-17 91h-78l1 -94h-19v94h-78l-17 -86l-19 3l17 83h-65
c-18 0 -38 -14 -38 -28v-2v-2l-28 -140c1 -15 13 -27 28 -27h418zM233 439c0 6 3 9 9 9s10 -3 10 -9s-4 -10 -10 -10s-9 4 -9 10zM261 439c0 6 4 9 10 9s9 -3 9 -9s-3 -10 -9 -10s-10 4 -10 10z" />
    <glyph glyph-name="uniF111" unicode="&#xf111;" 
d="M458 144h54v-19h-512v19h53l8 93h389zM72 144h367l-6 74h-355zM149 424c-40 -11 -60 -97 -65 -163h-19c4 50 20 165 79 181c8 2 16 3 23 3c60 0 89 -68 89 -68s31 71 83 71c9 0 18 -2 28 -7c53 -25 73 -132 79 -180h-19c-2 16 -5 39 -11 62c-14 55 -34 91 -57 102
c-7 3 -14 4 -20 4c-39 0 -66 -59 -66 -60l-18 -39l-16 40c0 1 -25 56 -72 56c-6 0 -12 0 -18 -2z" />
    <glyph glyph-name="uniF112" unicode="&#xf112;" 
d="M495 250c11 0 17 -3 17 -10c0 -30 -115 -157 -256 -157s-256 127 -256 157c0 7 6 10 17 10c18 0 51 -8 91 -15c3 88 15 213 55 213c39 0 78 -32 93 -46c16 14 56 46 94 46c39 0 51 -125 54 -213c40 7 73 15 91 15zM163 429c-13 0 -29 -63 -35 -162c7 -3 56 -24 128 -24
s121 21 128 24c-7 105 -22 162 -34 162c-40 0 -87 -47 -87 -47l-7 -6l-7 6s-46 47 -86 47zM127 247c-1 -18 -1 -37 -1 -57c16 -7 68 -25 130 -25s114 18 131 25c0 20 -1 39 -2 57c-18 -7 -64 -22 -129 -22s-111 15 -129 22zM256 101c117 0 212 94 233 130
c-13 -1 -31 -5 -53 -9c-10 -2 -20 -4 -31 -6v-32v-6l-5 -2c-3 -1 -64 -29 -144 -29s-140 28 -143 29l-6 2v6c0 9 1 20 1 32c-11 2 -22 4 -32 6c-22 4 -40 8 -53 9c21 -36 116 -130 233 -130zM320 361c-1 -2 -29 -41 -64 -41c-34 0 -69 38 -70 40l14 12c8 -9 35 -34 56 -34
s42 25 48 34z" />
    <glyph glyph-name="uniF113" unicode="&#xf113;" 
d="M512 134c0 0 2 -62 -13 -119c-11 -41 -108 -54 -173 -54c-24 0 -44 1 -53 4c-35 10 -138 229 -173 275c-2 3 -5 4 -7 4c-28 0 -27 -265 -27 -265h-25s-45 273 -41 357s75 112 75 112s165 -255 235 -279s202 -35 202 -35zM480 21c9 32 10 77 11 94c-39 4 -131 16 -187 35
c-67 22 -196 211 -236 271c-18 -12 -45 -38 -47 -86c-3 -51 13 -177 26 -264c0 11 2 21 2 32c6 133 19 147 26 154c5 5 11 8 18 8v0c6 0 15 -3 23 -13c13 -17 33 -59 56 -98c31 -52 88 -159 107 -169c7 -2 24 -4 47 -4c79 0 148 18 154 40z" />
    <glyph glyph-name="uniF114" unicode="&#xf114;" horiz-adv-x="506" 
d="M506 3l-88 -30l-44 145l9 -182h-264l10 182l-43 -141l-86 26l102 336l43 18c-5 12 -16 38 -16 55c0 25 36 36 121 36c84 0 127 -13 127 -38c0 -16 -12 -39 -20 -52l47 -20zM250 429c-101 0 -102 -16 -102 -17c0 -12 9 -35 14 -48l20 9s32 -53 71 -53s68 54 68 54l19 -8
c8 14 18 34 18 44c0 6 -27 19 -108 19zM347 270l44 -146l39 -128l53 18l-95 310l-60 27c-6 -8 -13 -19 -24 -28v-135h-19v122c-10 -5 -20 -9 -32 -9c-13 0 -25 4 -36 10v-127h-18v140c-10 9 -18 19 -24 26l-57 -25l-95 -310l51 -15l37 124l44 145l-8 -152l-8 -162h224
l-8 163z" />
    <glyph glyph-name="uniF115" unicode="&#xf115;" 
d="M408 401l104 -320l-90 -31l-41 137v-192h-122h-3h-3h-122v192l-41 -137l-90 31l104 320l107 47h42h6h42zM77 74l58 181l-26 100l-85 -263zM248 13v226l-46 185l-83 -37v-1v0l29 -107h1l1 -265zM257 281l37 148h-35h-6h-33zM363 279h1l29 107v0v1l-82 36l-44 -180v-230
l95 1zM377 255l58 -181l53 18l-85 263z" />
    <glyph glyph-name="uniF116" unicode="&#xf116;" 
d="M512 62l-90 -30l-44 147l9 -203h-266l9 203l-43 -143l-87 26l104 339l107 47s6 -66 45 -66s45 66 45 66l107 -47zM352 329l44 -145l39 -128l54 18l-96 313l-78 34c-8 -28 -25 -57 -59 -57s-51 29 -59 57l-78 -33l-95 -314l50 -14l38 124l44 144l-7 -150l-9 -184h227
l-8 184z" />
    <glyph glyph-name="uniF117" unicode="&#xf117;" horiz-adv-x="492" 
d="M410 135c22 0 31 -8 36 -15s6 -15 4 -25c-6 -27 -38 -62 -83 -89c-37 -23 -77 -36 -105 -36c-7 0 -12 1 -17 2c-25 -19 -64 -36 -93 -36c-12 0 -21 2 -28 9l-117 133c-24 24 24 88 57 122c12 52 59 108 107 156c60 60 132 92 194 92c36 0 69 -12 92 -35
c61 -61 39 -184 -50 -278h3zM152 -41c22 0 52 13 74 28l-154 188c-32 -36 -51 -71 -49 -81v-1h1l116 -131c2 -2 6 -3 12 -3zM431 99c1 4 1 8 -1 10c-3 4 -10 7 -20 7c-20 0 -47 -8 -75 -22v21c13 6 27 11 39 14l12 12c43 43 73 95 83 145c10 48 1 88 -25 114
c-19 19 -47 29 -79 29c-59 0 -127 -33 -181 -87c-43 -43 -90 -94 -101 -144l170 -208c3 -1 5 -1 9 -1c24 0 61 13 95 34c46 28 70 59 74 76z" />
    <glyph glyph-name="uniF118" unicode="&#xf118;" 
d="M0 448h512v-82c-3 0 -6 1 -9 1c-23 -10 -148 -72 -204 -237v0v-8h-84v12c-36 117 -180 217 -205 233c-3 0 -7 -1 -10 -1v82zM44 366c42 -31 123 -96 167 -176c-19 140 -92 171 -167 176zM303 188c47 98 114 152 157 178c-72 -6 -140 -38 -157 -178zM493 386v43h-474v-43
c97 -1 207 -31 215 -245h46c7 211 106 244 213 245z" />
    <glyph glyph-name="uniF119" unicode="&#xf119;" horiz-adv-x="266" 
d="M0 448h266l-31 -512h-197zM19 430l7 -93c11 6 30 20 30 41v52h-37zM55 -46h69v32h-72zM218 -46l2 32h-70l1 -32h67zM220 4l20 314c-11 5 -45 24 -45 60v52h-121v-52c0 -37 -36 -57 -46 -61l23 -313h73l3 329h18l5 -329h70zM213 378c0 -20 17 -34 28 -41l6 93h-34v-52z
" />
    <glyph glyph-name="uniF11A" unicode="&#xf11a;" horiz-adv-x="486" 
d="M485 406c5 -18 -25 -43 -54 -63c5 -14 3 -31 -9 -43c-8 -8 -19 -12 -29 -12c-3 0 -6 1 -8 1c69 -85 64 -210 -15 -289c-42 -42 -98 -64 -153 -64s-112 22 -154 64c-85 85 -85 221 0 306c42 42 99 64 154 64c48 0 96 -17 136 -49c-2 13 1 26 11 36c8 8 19 12 29 12
s21 -4 29 -12v0c29 20 50 38 48 45c0 0 -3 5 -27 5c-51 -1 -77 5 -84 20c-4 9 1 17 4 21l6 -5l6 -6s-3 -2 -2 -3s7 -12 69 -11c16 0 39 -2 43 -17zM357 13c77 77 77 203 0 280c-37 37 -87 58 -140 58s-103 -21 -140 -58s-59 -87 -59 -140s22 -103 59 -140s87 -58 140 -58
s103 21 140 58zM410 311c5 5 8 11 8 18c0 2 -1 3 -1 5c-8 -5 -14 -9 -20 -12l-8 13c7 4 14 9 20 13c-4 4 -10 5 -16 5c-7 0 -13 -2 -18 -7s-7 -10 -7 -17s2 -13 7 -18s11 -7 18 -7s12 2 17 7zM331 270l13 -13l-99 -103c1 -3 3 -7 3 -11c0 -15 -13 -28 -28 -28s-28 13 -28 28
c0 4 1 7 2 10l-64 59l13 13l63 -58c4 2 9 4 14 4s9 -2 13 -4zM220 134c5 0 9 4 9 9s-4 9 -9 9s-9 -4 -9 -9s4 -9 9 -9z" />
    <glyph glyph-name="uniF11B" unicode="&#xf11b;" 
d="M474 256l38 -230c0 -26 -21 -47 -47 -47h-418c-26 0 -47 21 -47 47l38 230c0 26 21 47 47 47h57v30c0 63 52 115 115 115c64 0 115 -52 115 -115v-30h55c26 0 47 -21 47 -47zM161 333v0v-30h59c7 14 20 24 37 24s31 -10 38 -24h58v30c0 53 -43 96 -96 96s-96 -43 -96 -96
zM280 286c0 12 -11 23 -23 23s-22 -11 -22 -23v-113c0 -12 10 -22 22 -22s23 10 23 22v113zM465 -2c15 0 27 12 28 27l-38 228v2v1c0 16 -12 29 -28 29h-128v-112c0 -23 -19 -41 -42 -41s-41 18 -41 41v112h-131c-16 0 -28 -13 -28 -29v-1v-2l-38 -228c1 -15 13 -27 28 -27
h418z" />
    <glyph glyph-name="uniF11C" unicode="&#xf11c;" horiz-adv-x="478" 
d="M385 439c133 -56 88 -192 75 -236s-35 -96 -40 -126s-1 -62 -6 -98c-4 -30 -37 -43 -74 -43c-8 0 -17 1 -25 2c-45 7 -68 40 -63 73s14 57 15 89s-6 43 -6 102c0 53 -7 246 87 246c11 0 23 -3 37 -9zM424 156l9 24c-24 80 -56 169 -70 182c-14 -11 -54 -97 -83 -168
c0 -26 2 -41 3 -54s2 -24 2 -40c-1 -22 -4 -40 -8 -58c-2 -11 -5 -22 -7 -34s1 -23 9 -32c9 -11 22 -17 39 -20c7 -1 15 -2 22 -2c25 0 53 7 56 27c3 18 3 36 3 52s0 31 2 47c3 20 13 48 23 76zM444 212c23 75 35 168 -66 210c-11 5 -21 8 -30 8c-12 0 -22 -4 -30 -13
c-33 -33 -38 -119 -39 -174c39 94 69 142 86 139c21 -3 53 -89 78 -171zM214 101c1 -32 11 -56 16 -89s-18 -67 -63 -74c-9 -1 -17 -2 -26 -2c-36 0 -68 13 -73 42c-6 36 -2 69 -7 99s-28 81 -42 125s-60 180 72 237c14 6 27 9 38 9v0v-18c-9 0 -19 -3 -30 -8
c-101 -44 -87 -136 -63 -211v-1c24 81 54 165 75 168c17 3 46 -41 88 -130c-2 69 -12 182 -70 182v18c93 0 88 -193 89 -245c1 -59 -5 -70 -4 -102zM203 -23c7 9 11 20 9 32s-4 23 -7 34c-4 18 -9 35 -10 57c-1 16 1 27 2 40c1 15 3 31 3 62c-31 70 -71 147 -86 157
c-13 -13 -45 -100 -68 -179c3 -8 7 -17 10 -25c11 -28 20 -55 23 -75c3 -16 3 -32 3 -48s1 -33 4 -51c3 -19 31 -26 55 -26c8 0 15 1 23 2c17 3 30 9 39 20z" />
    <glyph glyph-name="uniF11D" unicode="&#xf11d;" 
d="M512 273c6 -65 -45 -88 -142 -88s-336 17 -353 23s-19 36 -15 99s35 109 35 109s19 -52 60 -52h1c42 1 69 83 114 84h2c43 0 59 -38 145 -86c87 -48 149 -48 153 -89zM439 305c-9 3 -17 7 -27 11l-49 -60c85 6 112 22 120 29c-8 6 -23 12 -44 20zM98 345l-62 -72
c55 -7 192 -23 302 -19l55 70c-12 5 -25 11 -38 18l-34 -35l-14 13l31 32c-8 5 -16 10 -23 15l-43 -46l-14 13l41 44c-10 7 -19 13 -26 19l-51 -57l-14 12l50 57c-19 14 -29 20 -44 20h-1c-14 0 -30 -18 -45 -36c-20 -23 -40 -47 -69 -48h-1zM21 306c-1 -9 -2 -16 -2 -23
l57 66c-16 5 -29 17 -38 28c-8 -18 -15 -43 -17 -71zM482 231c8 9 12 22 11 38c-16 -13 -55 -29 -142 -33c-16 -1 -32 -1 -49 -1c-115 0 -246 16 -283 21c1 -22 3 -28 5 -30c25 -6 252 -22 346 -22c59 0 96 9 112 27z" />
    <glyph glyph-name="uniF11E" unicode="&#xf11e;" 
d="M470 448l42 -474l-214 -34l-43 178l-36 -181l-219 27l42 484h428zM59 429l-3 -41h401l-4 41h-394zM273 122l39 -161l180 29l-34 379h-404v1l-34 -390l184 -23l33 165l16 82z" />
    <glyph glyph-name="uniF11F" unicode="&#xf11f;" 
d="M499 261v0h13v-18h-16c-4 -68 -54 -145 -115 -145c-42 0 -79 37 -99 82h-49c-8 -17 -18 -33 -30 -46v-4h-3c-19 -19 -42 -31 -66 -31c-61 0 -110 77 -114 144h-20v18h14l106 187h79v-19h-68l-96 -168h443l-94 165h-68v19h79zM231 243h-193c0 -7 2 -13 3 -20h187
c1 7 3 13 3 20zM46 204c2 -6 4 -12 7 -18h163c3 6 5 12 7 18h-177zM68 160c3 -4 6 -7 9 -11h115c3 4 6 7 9 11c2 2 3 5 4 7h-141c1 -2 2 -5 4 -7zM134 117c12 0 25 5 37 13h-73c12 -8 24 -13 36 -13zM292 204c2 -6 4 -12 7 -18h163c3 6 5 12 7 18h-177zM240 199h35
c-5 15 -8 29 -9 44h-17c-1 -15 -4 -29 -9 -44zM343 130c12 -8 26 -13 38 -13s25 5 37 13h-75zM438 149c3 3 6 7 9 11c2 2 3 4 5 7h-143c2 -3 3 -5 5 -7c3 -4 6 -8 9 -11h115zM473 218c2 8 3 17 4 25h-193c0 -7 2 -13 3 -20h186v-5z" />
    <glyph glyph-name="uniF120" unicode="&#xf120;" 
d="M397 448l115 -363s-108 -144 -256 -144s-256 144 -256 144l117 363s56 -24 140 -24s140 24 140 24zM129 424l-11 -33c21 -9 82 -32 138 -32c57 0 118 23 139 32l-10 33c-24 -7 -69 -19 -128 -19s-104 11 -128 19zM427 27c31 25 54 50 64 62l-90 284
c-23 -10 -86 -32 -145 -32s-121 22 -144 32l-91 -284c10 -12 33 -37 64 -62c39 -31 100 -68 171 -68s132 37 171 68zM246 -3v306h19v-306h-19zM364 31l-18 -3l-48 273l18 3zM439 98l-17 -6l-69 217l18 6zM207 301l-48 -273l-18 3l48 273zM84 92l-18 6l68 217l18 -6z" />
    <glyph glyph-name="uniF121" unicode="&#xf121;" 
d="M508 298c5 -22 5 -43 0 -63c-7 -28 -24 -49 -47 -58l-321 -127c-8 -3 -17 -6 -26 -6c-42 0 -83 34 -103 84c-12 30 -13 59 -7 85c-12 54 6 106 47 122l285 113l1 -14c3 -41 37 -72 78 -72c25 0 49 12 64 33l11 14l7 -16c1 -3 3 -6 4 -9c11 -29 14 -59 7 -86zM44 306
c-24 -22 -31 -66 -14 -109c16 -41 51 -70 84 -70c3 0 5 1 8 1zM488 240c2 7 3 15 3 22c-8 -10 -18 -18 -30 -23l-321 -128c-8 -3 -17 -5 -26 -5c-35 0 -70 24 -92 61c1 -11 4 -21 8 -32c16 -41 51 -70 84 -70c7 0 13 2 19 4l320 127c17 7 29 22 35 44zM488 302
c5 21 4 44 -4 67c-18 -18 -43 -28 -69 -28c-47 0 -87 33 -97 78l-256 -102l80 -183l311 124c17 7 29 22 35 44z" />
    <glyph glyph-name="uniF122" unicode="&#xf122;" horiz-adv-x="458" 
d="M452 213c14 -30 1 -64 -28 -78l-19 -9l-235 -179c-10 -8 -21 -11 -33 -11c-17 0 -34 7 -45 22l-19 25c-18 3 -34 15 -42 33l-25 54c-14 30 -2 64 27 78l213 99l-56 124l39 17l-6 28l145 32l34 -154c11 -6 19 -15 25 -27zM212 362l42 -91l-22 100zM160 -39l172 131
l-224 -105c-4 -2 -8 -3 -13 -4l11 -14c8 -10 19 -16 31 -16c8 0 16 3 23 8zM416 152c20 9 28 33 19 53l-25 54c-4 8 -9 14 -17 18l-8 5l-2 8l-29 136l-109 -24l31 -145l3 -15l-13 -6l-225 -105c-20 -9 -27 -33 -18 -53l25 -54c7 -14 21 -23 36 -23c6 0 11 1 16 3zM311 295
l-18 -4l-22 97l18 4zM352 309l-18 -4l-22 97l19 4z" />
    <glyph glyph-name="uniF123" unicode="&#xf123;" 
d="M408 401l104 -320l-90 -31l-41 137v-192h-122v-1l-3 1l-3 -1v1h-122v192l-41 -137l-90 31l104 320l107 47h42h6h42zM307 406l-40 -163v-11l54 33l-11 51l29 39zM77 74l58 181l-26 100l-85 -263zM248 13v0v199l-71 44l12 56l-32 42l43 69l-81 -36v-1v0l29 -107h1l1 -265z
M248 234v5l-40 161l-28 -45l29 -39l-11 -51zM257 281l36 147l-1 1h-33h-6h-27l-4 -7zM363 279h1l29 107v0v1l-72 32l40 -65l-31 -42l12 -56l-75 -45v0v-198l95 1zM377 255l58 -181l53 18l-85 263zM169 111v19h56v-19h-56zM288 111v19h56v-19h-56z" />
    <glyph glyph-name="uniF124" unicode="&#xf124;" 
d="M512 249l-24 -1c-2 -15 -17 -124 -60 -139c-22 -8 -53 -13 -81 -13c-23 0 -44 4 -56 11c-14 9 -26 45 -36 84c-10 -38 -23 -75 -37 -84c-12 -7 -33 -11 -56 -11c-28 0 -59 5 -81 13c-43 15 -57 124 -59 139l-22 1l1 19l16 -1l104 181h78v-19h-68l-93 -164l218 -16l219 16
l-91 161h-68v19h79l101 -178l15 1z" />
    <glyph glyph-name="uniF125" unicode="&#xf125;" 
d="M499 261h13v-18h-16c-4 -68 -54 -145 -115 -145c-42 0 -79 37 -99 82h-49c-20 -45 -57 -81 -99 -81c-61 0 -111 77 -115 144h-19v18h14l106 187h79v-19h-68l-96 -168h443l-94 165h-68v18h79zM240 199h34c-5 15 -7 29 -8 44h-17c-1 -15 -4 -29 -9 -44z" />
    <glyph glyph-name="uniF126" unicode="&#xf126;" 
d="M470 448l42 -474l-214 -34l-43 178l-36 -181l-219 27l42 484h428zM453 429h-151l7 -41h148zM241 429l-7 -41h56l-7 41h-42zM59 429l-3 -41h159l8 41h-164zM273 122l39 -161l180 29l-34 379h-146l24 -136l-19 -3l-24 139h-62l-24 -139l-18 3l23 136h-158v1l-34 -390
l184 -23l33 165l16 82z" />
    <glyph glyph-name="uniF127" unicode="&#xf127;" horiz-adv-x="316" 
d="M262 427h-31c-2 -31 -25 -121 -73 -121s-71 90 -73 121h-24v-117c0 -21 -6 -41 -18 -57c8 -25 13 -66 -2 -123c-16 -61 -19 -137 -20 -173h274c0 36 -3 111 -21 171c-16 54 -5 103 4 129c-11 16 -16 34 -16 53v117zM273 448v0c2 0 6 -1 10 -3v-135c0 -19 7 -37 19 -50
c-8 -18 -25 -68 -8 -126c25 -85 21 -198 21 -198h-315s-2 113 21 199c17 63 5 105 -2 122c13 13 21 33 21 53v138h2h64v-17c0 -29 23 -104 52 -104s52 75 52 104v17h63z" />
    <glyph glyph-name="uniF128" unicode="&#xf128;" horiz-adv-x="340" 
d="M271 427h-30c-2 -31 -25 -121 -73 -121s-71 90 -73 121h-24v-117c0 -25 -23 -42 -42 -56c-2 -2 -5 -3 -7 -5c5 -47 7 -177 8 -292h274c3 117 7 248 13 295c-2 2 -5 3 -7 5c-17 13 -39 30 -39 53v117zM283 448v0c2 0 5 -1 9 -3v-135c0 -19 36 -37 48 -50
c-8 -18 -15 -324 -15 -324h-315s-3 304 -10 321c13 13 50 33 50 53v138h2h64v-17c0 -29 23 -104 52 -104s52 75 52 104v17h63z" />
    <glyph glyph-name="uniF129" unicode="&#xf129;" 
d="M512 432v0v-1v-2h-3c-14 -11 -82 -59 -198 -72c-16 -36 -23 -90 -36 -171l-18 2l-19 -2c-14 81 -21 135 -37 171c-116 13 -184 61 -198 72h-2v2l-1 1l1 1v15h511v-16zM36 429c28 -17 81 -42 155 -52c-21 40 -40 50 -47 52h-108zM265 215c14 136 48 194 70 214h-157
c23 -21 53 -79 72 -217c6 1 15 -1 15 3zM320 377c75 10 128 35 156 52h-111c-8 -3 -25 -14 -45 -52z" />
    <glyph glyph-name="uniF12A" unicode="&#xf12a;" horiz-adv-x="163" 
d="M163 448c0 0 -14 -93 -51 -128l43 -312l-74 -72l-74 71l44 314c-37 35 -51 127 -51 127h163zM23 429c10 -48 32 -103 58 -103s49 55 59 103h-117zM136 15l-41 294c-4 -2 -9 -2 -14 -2s-9 0 -13 2l-41 -295l54 -52z" />
    <glyph glyph-name="uniF12B" unicode="&#xf12b;" 
d="M404 73c69 -12 108 -32 108 -55c0 -37 -97 -67 -256 -67s-256 30 -256 67c0 24 41 44 115 56l-5 49v0l-47 255s63 70 193 70s194 -70 194 -70l-39 -251zM86 371l40 -218c26 10 70 22 128 22c61 0 111 -13 139 -23l34 218c-19 16 -76 57 -171 57c-50 0 -94 -11 -133 -32
c-17 -9 -30 -18 -37 -24zM256 -28c185 0 234 39 235 46c-1 7 -50 45 -235 45s-234 -38 -235 -45c1 -7 50 -46 235 -46z" />
    <glyph glyph-name="uniF12C" unicode="&#xf12c;" 
d="M377 448c23 0 135 -145 135 -145l-84 -74l-32 40v-275h-280v272l-30 -39l-86 76s114 145 135 145h75v-15c0 -26 20 -46 46 -46s46 20 46 46v15h75zM410 281l20 -25l57 50c-44 56 -96 115 -112 123h-54c-2 -34 -31 -61 -65 -61s-63 27 -65 61h-54
c-16 -9 -67 -68 -112 -124l58 -51l18 24l33 44v-56l1 -253h242v256v53z" />
    <glyph glyph-name="uniF12D" unicode="&#xf12d;" 
d="M301 341l-24 -113h55l-118 -177l30 128h-69zM377 448c23 0 135 -145 135 -145l-84 -74l-32 40v-275h-280v272l-30 -39l-86 76s114 145 135 145h75v-15c0 -26 20 -46 46 -46s46 20 46 46v15h75zM410 281l20 -25l57 50c-44 56 -96 115 -112 123h-54c-2 -34 -31 -61 -65 -61
s-63 27 -65 61h-54c-16 -9 -67 -68 -112 -124l58 -51l18 24l33 44v-56l1 -253h242v256v53z" />
    <glyph glyph-name="uniF12E" unicode="&#xf12e;" 
d="M377 448c23 0 135 -145 135 -145l-84 -74l-32 40v-275h-280v272l-30 -39l-86 76s114 145 135 145h75v-15c0 -26 21 -46 46 -46c26 0 46 20 46 46v15h75z" />
    <glyph glyph-name="uniF12F" unicode="&#xf12f;" 
d="M408 420l104 -142l-90 -68l-28 35v-269h-273l-1 269l-33 -40l-87 63l104 152l107 28l45 -122l45 122zM409 256l16 -20l61 46l-89 121l-84 23l-40 -107l-17 -47l-18 48l-39 106l-84 -22l-89 -131l58 -42l22 26l33 39v-51v-251h236v251v53z" />
    <glyph glyph-name="uniF130" unicode="&#xf130;" horiz-adv-x="503" 
d="M503 402c0 -12 -5 -24 -14 -33c-4 -4 -8 -7 -13 -9c33 -97 -60 -258 -100 -316c6 -9 10 -20 10 -31c0 -15 -6 -29 -16 -39l-22 -22c-10 -10 -24 -16 -39 -16s-29 6 -39 16l-254 254c-22 22 -22 56 0 78l22 22c10 10 24 16 39 16c11 0 22 -3 31 -9c49 35 166 110 260 110
c16 0 32 -2 45 -7c2 7 6 13 11 18c9 9 20 14 32 14s24 -5 33 -14s14 -20 14 -32zM357 -13c7 7 11 16 11 26s-4 19 -11 26l-254 254c-7 7 -16 11 -26 11s-19 -4 -26 -11l-22 -22c-14 -14 -14 -38 0 -52l254 -254c7 -7 16 -11 26 -11s19 4 26 11zM364 58c40 59 126 212 94 298
h-2c-12 0 -23 4 -32 13c-8 8 -12 17 -13 27c-13 5 -27 9 -43 9c-85 0 -197 -71 -246 -105zM476 382c5 5 8 13 8 20s-3 14 -8 19s-13 9 -20 9s-14 -4 -19 -9c-11 -11 -11 -28 0 -39c10 -10 29 -10 39 0z" />
    <glyph glyph-name="uniF131" unicode="&#xf131;" 
d="M428 244l-26 24s-31 -60 -10 -132c25 -84 21 -198 21 -198h-314s-3 114 20 199c23 86 -6 131 -6 131l-27 -27l-86 86s117 121 141 121h63v-17c0 -29 23 -51 52 -51s52 22 52 51v17h63s141 -121 141 -121zM384 278l13 24l20 -19l11 -10l55 55c-46 47 -99 94 -114 99h-40
c-2 -38 -34 -68 -73 -68s-71 30 -73 68h-41c-15 -6 -67 -54 -113 -100l57 -56l12 12l18 18l14 -22c1 -2 35 -54 10 -148c-16 -60 -19 -136 -20 -172h272c0 35 -2 112 -20 171c-24 79 11 145 12 148z" />
    <glyph glyph-name="uniF132" unicode="&#xf132;" horiz-adv-x="382" 
d="M287 394v-82c33 -31 53 -75 53 -123s-20 -92 -53 -123v-76c0 -30 -25 -54 -55 -54h-126c-30 0 -55 24 -55 54v78c-32 31 -51 73 -51 121s19 91 51 122v83c0 30 25 54 55 54h126c30 0 55 -24 55 -54zM70 394v-68c28 21 62 33 100 33c37 0 71 -12 99 -32v67
c0 20 -17 36 -37 36h-126c-20 0 -36 -16 -36 -36zM269 -10v61c-28 -20 -62 -31 -99 -31c-38 0 -72 12 -100 33v-63c0 -20 16 -36 36 -36h126c20 0 37 16 37 36zM320 189c0 83 -67 150 -150 150s-150 -67 -150 -150s67 -149 150 -149s150 66 150 149zM362 149v86h20v-86h-20z
M257 291l14 -14l-68 -69c2 -5 4 -10 4 -16c0 -21 -18 -39 -39 -39s-39 18 -39 39c0 6 2 13 5 18l-48 49l14 14l47 -49c6 4 13 7 21 7s16 -3 22 -8zM168 173c10 0 18 9 18 19s-8 19 -18 19s-19 -9 -19 -19s9 -19 19 -19z" />
    <glyph glyph-name="uniF133" unicode="&#xf133;" horiz-adv-x="506" 
d="M506 3l-88 -30l-44 145l9 -182h-264l10 182l-43 -141l-86 26l102 336l42 18c-5 12 -15 38 -15 55c0 25 36 36 121 36c84 0 127 -13 127 -38c0 -16 -12 -39 -20 -52l47 -20zM240 -45v0v347c-8 2 -16 5 -23 9v-127h-18v140c-10 9 -18 19 -24 26l-57 -25l-95 -310l51 -15
l37 124l44 145l-8 -152l-8 -162h101zM182 373c0 0 32 -53 71 -53s68 54 68 54l19 -8c8 14 18 34 18 44c0 6 -27 19 -108 19c-101 0 -102 -16 -102 -17c0 -12 9 -35 14 -48zM347 270l44 -146l39 -128l53 18l-95 310l-60 27c-6 -8 -13 -19 -24 -28v-135h-19v122
c-8 -4 -17 -8 -26 -9v-346h104l-8 163z" />
  </font>
</defs>
</svg>
