<?xml version="1.0" standalone="no"?>
<!DOCTYPE svg PUBLIC "-//W3C//DTD SVG 1.1//EN" "http://www.w3.org/Graphics/SVG/1.1/DTD/svg11.dtd" >
<!--
2013-9-15: Created.
-->
<svg xmlns="http://www.w3.org/2000/svg">
<metadata>
Created by FontForge 20120731 at Sun Sep 15 15:49:42 2013
 By Tyler Wanlass
Created by Tyler Wanlass with FontForge 2.0 (http://fontforge.sf.net)
</metadata>
<defs>
<font id="picto-foundry-weather" horiz-adv-x="512" >
  <font-face 
    font-family="picto-foundry-weather"
    font-weight="500"
    font-stretch="normal"
    units-per-em="512"
    panose-1="2 0 6 3 0 0 0 0 0 0"
    ascent="448"
    descent="-64"
    bbox="-0.411601 -64 512.201 448.188"
    underline-thickness="25.6"
    underline-position="-51.2"
    unicode-range="U+F100-F139"
  />
    <missing-glyph />
    <glyph glyph-name="uniF100" unicode="&#xf100;" 
d="M256 448c141 0 256 -115 256 -256s-115 -256 -256 -256s-256 115 -256 256s115 256 256 256zM256 -45c131 0 237 106 237 237s-106 237 -237 237s-237 -106 -237 -237s106 -237 237 -237zM104 275c0 12 7 18 19 18s19 -6 19 -18s-7 -19 -19 -19s-19 7 -19 19zM227 279
c-22 -12 -33 -41 -33 -87s11 -76 33 -88c39 -21 101 19 102 19l10 -16c-2 -1 -44 -27 -85 -27c-12 0 -25 2 -36 8c-28 15 -42 51 -42 104s14 88 42 103c48 26 118 -18 121 -20l-10 -15c-1 0 -63 40 -102 19z" />
    <glyph glyph-name="uniF101" unicode="&#xf101;" 
d="M283 266v-33h32v-30h-32v-32h-30v32h-32v30h32v33h30zM491 92h21v-15h-21v-21h-15v21h-20v15h20v20h15v-20zM185 391v20h-20v15h20v21h15v-21h21v-15h-21v-20h-15zM34 280v-13h13v-21h-13v-13h-21v13h-13v21h13v13h21zM133 155v-9h10v-16h-10v-9h-15v9h-9v16h9v9h15z
M207 -3v-10h9v-15h-9v-9h-16v9h-9v15h9v10h16zM441 245v-9h9v-15h-9v-9h-15v9h-10v15h10v9h15zM459 414v10h-9v15h9v9h15v-9h10v-15h-10v-10h-15z" />
    <glyph glyph-name="uniF102" unicode="&#xf102;" horiz-adv-x="447" 
d="M305 65c49 0 95 17 132 49l6 6l-2 -8c-22 -102 -114 -176 -218 -176c-123 0 -223 100 -223 223c0 81 44 157 115 196l7 3l-3 -7c-12 -26 -17 -54 -17 -83c0 -112 91 -203 203 -203zM223 -43c75 0 144 43 179 109c-30 -15 -63 -22 -97 -22c-124 0 -225 100 -225 224
c0 12 1 24 3 36c-39 -38 -62 -90 -62 -145c0 -111 91 -202 202 -202zM383 381v23h-22v21h22v23h21v-23h23v-21h-23v-23h-21zM432 273h15v-10h-15v-15h-10v15h-15v10h15v15h10v-15zM262 391v6h-6v11h6v7h11v-7h7v-11h-7v-6h-11zM308 288v7h-6v10h6v7h11v-7h7v-10h-7v-7h-11z
" />
    <glyph glyph-name="uniF103" unicode="&#xf103;" 
d="M444 147c38 -1 68 -30 68 -67s-31 -68 -69 -68h-1h-151h-2h-3h-137h-3h-2h-99h-1c-24 0 -44 19 -44 43c0 21 16 39 36 43c-2 8 -3 17 -3 26c0 62 38 112 114 112h2c26 50 79 84 140 84c99 0 156 -69 156 -154c0 -6 0 -13 -1 -19zM444 30c27 1 49 23 49 50s-22 49 -49 49
h-21l2 21c1 5 2 10 2 16c0 81 -55 135 -138 135c-52 0 -100 -28 -124 -74l-5 -10h-11h-3c-59 0 -95 -35 -95 -93c0 -7 1 -15 3 -22l5 -19l-20 -4c-12 -2 -20 -12 -20 -24c0 -13 10 -25 24 -25c1 0 1 1 2 1h99c1 0 2 -1 3 -1s1 1 2 1h137c1 0 2 -1 3 -1s1 1 2 1h151
c1 0 1 -1 2 -1zM135 343v20h-20v19h20v19h18v-19h20v-19h-20v-20h-18zM221 413v13h-13v9h13v13h9v-13h13v-9h-13v-13h-9zM47 408v6h-6v10h6v5h10v-5h5v-10h-5v-6h-10zM262 362v6h-6v9h6v6h9v-6h6v-9h-6v-6h-9zM100 274v6h-6v10h6v5h9v-5h6v-10h-6v-6h-9z" />
    <glyph glyph-name="uniF104" unicode="&#xf104;" 
d="M444 275c37 -1 68 -30 68 -67s-31 -68 -69 -68h-1h-151h-2h-3h-137h-3h-2h-99h-1c-24 0 -44 19 -44 43c0 21 16 39 36 43c-2 8 -3 17 -3 26c0 62 37 112 113 112c1 0 2 -1 3 -1c26 50 79 85 140 85c99 0 156 -69 156 -154c0 -6 0 -13 -1 -19z" />
    <glyph glyph-name="uniF105" unicode="&#xf105;" 
d="M444 162c38 -1 68 -31 68 -68s-31 -68 -69 -68h-1h-151h-2h-3h-137h-2h-3h-99h-1c-24 0 -44 20 -44 44c0 21 16 38 36 42c-2 8 -3 17 -3 26c0 50 25 93 74 107c-41 15 -71 54 -71 100c15 -13 35 -22 57 -22c48 0 86 39 86 87c0 14 -3 26 -9 38c46 -12 80 -54 80 -103
c0 -5 -1 -11 -2 -16c13 3 27 6 41 6c99 0 156 -69 156 -154c0 -6 0 -13 -1 -19zM63 309c14 -31 44 -52 80 -52c3 0 7 1 10 1c17 29 44 51 75 64c2 7 3 15 3 23c0 27 -13 53 -33 69v-4c0 -58 -47 -105 -105 -105c-10 0 -20 1 -30 4zM145 250h-3l1 1s1 -1 2 -1zM444 45
c27 1 49 22 49 49s-22 49 -49 49h-21l3 21c1 5 1 11 1 17c0 81 -55 135 -138 135c-52 0 -100 -28 -124 -74l-5 -10h-11h-3c-59 0 -95 -36 -95 -94c0 -7 1 -14 3 -21l5 -19l-20 -4c-12 -2 -20 -12 -20 -24c0 -13 10 -25 24 -25h2h99h3h2h137h3h2h151h2z" />
    <glyph glyph-name="uniF106" unicode="&#xf106;" 
d="M444 275c38 -1 68 -30 68 -67s-31 -68 -69 -68h-1h-151h-2h-3h-137h-2h-3h-99h-1c-24 0 -44 19 -44 43c0 21 16 39 36 43c-2 8 -3 17 -3 26c0 62 38 112 114 112h2c26 50 79 84 140 84c99 0 156 -69 156 -154c0 -6 0 -13 -1 -19zM444 158c27 1 49 23 49 50s-22 49 -49 49
h-21l2 21c1 5 2 10 2 16c0 81 -55 135 -138 135c-52 0 -100 -28 -124 -74l-5 -10h-11h-3c-59 0 -95 -35 -95 -93c0 -7 1 -15 3 -22l5 -19l-20 -4c-12 -2 -20 -12 -20 -24c0 -13 10 -25 24 -25c1 0 1 1 2 1h99c1 0 2 -1 3 -1s1 1 2 1h137c1 0 2 -1 3 -1s1 1 2 1h151
c1 0 1 -1 2 -1z" />
    <glyph glyph-name="uniF107" unicode="&#xf107;" 
d="M512 273h-90c-1 -16 -4 -31 -9 -46h38v-19h-46c-27 -54 -83 -91 -148 -91s-121 37 -148 91h-109v19h101c-5 15 -8 30 -9 46h-32v19h32c1 16 4 32 9 47h-97v18h105c27 54 84 91 148 91s120 -37 147 -91h52v-18h-44c5 -15 9 -31 10 -47h90v-19zM257 429
c-54 0 -101 -29 -127 -72h253c-26 43 -72 72 -126 72zM257 135c54 0 101 29 127 73h-254c26 -44 73 -73 127 -73zM393 227c6 14 9 30 10 46h-293c1 -16 5 -32 11 -46h272zM110 292h293c-1 17 -4 32 -10 47h-272c-6 -15 -10 -30 -11 -47z" />
    <glyph glyph-name="uniF108" unicode="&#xf108;" horiz-adv-x="462" 
d="M206 313c67 0 122 -55 122 -122s-55 -121 -122 -121c-15 0 -29 2 -42 7c-13 -5 -27 -7 -42 -7c-67 0 -122 54 -122 121s55 122 122 122c15 0 29 -2 42 -7c13 5 27 7 42 7zM206 88c57 0 103 46 103 103s-46 104 -103 104c-6 0 -11 -1 -17 -2c33 -22 54 -60 54 -102
s-21 -79 -54 -101c6 -1 11 -2 17 -2zM197 338v110h18v-110h-18zM197 -64v110h18v-110h-18zM393 18l-13 -14l-78 78l13 14zM351 183v18h111v-18h-111zM302 302l78 78l13 -14l-78 -78z" />
    <glyph glyph-name="uniF109" unicode="&#xf109;" 
d="M256 448c141 0 256 -115 256 -256s-115 -256 -256 -256s-256 115 -256 256s115 256 256 256zM256 -45c131 0 237 106 237 237s-106 237 -237 237s-237 -106 -237 -237s106 -237 237 -237zM104 275c0 12 7 18 19 18s19 -6 19 -18s-7 -19 -19 -19s-19 7 -19 19zM196 71v233
h148v-19h-129v-93h77v-18h-77v-103h-19z" />
    <glyph glyph-name="uniF10A" unicode="&#xf10a;" 
d="M512 255v0v-20h-32v-2c0 -121 -98 -219 -219 -219c-83 0 -156 45 -193 113c26 -11 54 -17 84 -17c52 0 100 19 136 51h-288v19h306c14 16 26 35 35 55h-304v20h311c5 18 9 36 9 55h-357v19h356c-3 45 -21 87 -49 119c92 -20 163 -97 172 -193h33zM347 418
c15 -27 23 -58 25 -89h44v-19h-43c0 -19 -3 -37 -8 -55h98c-8 71 -52 133 -116 163zM261 30c112 0 204 91 204 203c0 1 -1 1 -1 2h-106c-8 -20 -18 -38 -31 -55h89v-19h-105c-40 -42 -97 -67 -159 -67c-15 0 -29 1 -43 4c38 -43 93 -68 152 -68z" />
    <glyph glyph-name="uniF10B" unicode="&#xf10b;" 
d="M263 359v89h19v-89h-19zM353 330l63 62l13 -13l-62 -63zM396 254v19h89v-19h-89zM59 254v19h89v-19h-89zM115 379l14 13l62 -62l-13 -14zM368 203h144v-19h-419v19h82c-4 10 -6 21 -6 33c0 56 47 102 103 102s102 -46 102 -102c0 -12 -2 -23 -6 -33zM348 203
c4 10 7 21 7 33c0 46 -37 83 -83 83s-84 -37 -84 -83c0 -12 3 -23 7 -33h153zM0 127v19h479v-19h-479zM43 70v19h385v-19h-385z" />
    <glyph glyph-name="uniF10C" unicode="&#xf10c;" 
d="M254 394c-121 69 -237 1 -238 0l-11 19c5 3 128 77 260 1c121 -69 234 -2 235 -1l12 -19c-3 -2 -57 -34 -131 -34c-38 0 -82 8 -127 34zM261 335c120 -69 234 -1 235 0l11 -19c-3 -2 -57 -35 -131 -35c-38 0 -81 9 -126 35c-120 69 -237 1 -238 0l-12 19
c5 3 129 76 261 0zM261 257c120 -69 234 -1 235 0l11 -19c-3 -2 -57 -35 -131 -35c-38 0 -81 8 -126 34c-121 69 -237 2 -238 1l-12 19c5 3 129 76 261 0zM261 181c120 -69 234 -1 235 0l11 -19c-3 -2 -57 -35 -131 -35c-38 0 -81 8 -126 34c-121 69 -237 2 -238 1l-12 19
c5 3 129 76 261 0z" />
    <glyph glyph-name="uniF10D" unicode="&#xf10d;" horiz-adv-x="404" 
d="M388 126c22 -40 22 -85 0 -122c-25 -42 -74 -68 -127 -68s-101 26 -126 68c-22 37 -22 82 0 122c18 32 34 57 49 80c27 41 51 77 69 137l8 26l8 -26c18 -60 42 -96 69 -137c15 -23 32 -48 50 -80zM140 252c-13 -22 -38 -36 -66 -36s-52 14 -65 36c-12 20 -12 43 0 64
c9 16 17 28 24 39c14 21 24 37 33 66l8 27l9 -27c9 -29 19 -45 33 -66c7 -11 15 -23 24 -39c12 -21 12 -44 0 -64z" />
    <glyph glyph-name="uniF10E" unicode="&#xf10e;" horiz-adv-x="418" 
d="M273 308c-17 -41 -38 -71 -60 -105c-16 -25 -33 -51 -52 -85c-19 -35 -20 -71 -1 -103c22 -37 65 -60 113 -60s91 23 113 60c19 32 18 68 -1 103c-19 34 -36 60 -52 85c-22 34 -43 64 -60 105zM273 363v0c31 -102 74 -138 128 -236c53 -95 -25 -191 -128 -191
s-181 96 -128 191c54 98 97 134 128 236zM71 399c-7 -12 -13 -23 -21 -35s-16 -25 -25 -41c-8 -14 -8 -28 -1 -41c9 -15 27 -25 47 -25s38 10 47 25c7 13 8 27 0 41c-9 16 -17 29 -25 41s-15 23 -22 35zM71 448v0c15 -50 36 -68 63 -116c26 -47 -12 -94 -63 -94
s-89 47 -63 94c27 48 48 66 63 116z" />
    <glyph glyph-name="uniF10F" unicode="&#xf10f;" horiz-adv-x="494" 
d="M490 225l-118 30l-110 -63l106 -62l115 30l5 -18l-98 -25l79 -47l-10 -16l-75 45l24 -93l-18 -5l-29 111l-108 64v-125l82 -82l-13 -13l-69 69v-89h-19v89l-69 -69l-14 13l83 83v124l-107 -62l-29 -113l-18 5l25 95l-78 -45l-9 16l77 45l-95 25l5 18l113 -30l107 62
l-104 61l-110 -28l-4 18l91 24l-80 47l10 16l85 -50l-26 99l19 4l29 -116l99 -59v125l-83 82l14 14l69 -70v89h19v-89l69 70l13 -14l-82 -82v-125l115 67l28 108l18 -4l-23 -91l69 40l9 -17l-74 -42l99 -26z" />
    <glyph glyph-name="uniF110" unicode="&#xf110;" horiz-adv-x="412" 
d="M206 398c114 0 206 -92 206 -206v-256l-14 13c-67 63 -154 40 -155 40v0c-12 -2 -25 -3 -37 -3c-114 0 -206 92 -206 206v256l14 -14c67 -63 154 -39 155 -39v0c12 2 25 3 37 3zM102 193c0 -57 46 -103 103 -103s103 46 103 103s-46 103 -103 103s-103 -46 -103 -103z
" />
    <glyph glyph-name="uniF111" unicode="&#xf111;" horiz-adv-x="412" 
d="M205 313c66 0 120 -54 120 -120s-54 -120 -120 -120s-120 54 -120 120s54 120 120 120zM205 90c57 0 103 46 103 103s-46 103 -103 103s-103 -46 -103 -103s46 -103 103 -103zM206 398c114 0 206 -92 206 -206v-256l-14 14c-67 63 -154 39 -155 39v0
c-12 -2 -25 -3 -37 -3c-114 0 -206 92 -206 206v256l14 -14c67 -63 154 -39 155 -39v0c12 2 24 3 37 3zM395 192v0c0 104 -85 189 -189 189c-12 0 -23 -1 -34 -3c-1 0 -1 -1 -2 -1c-18 -4 -89 -15 -153 33v-218c0 -104 85 -189 189 -189c13 0 26 1 38 4v0
c21 4 90 14 151 -33v218z" />
    <glyph glyph-name="uniF112" unicode="&#xf112;" horiz-adv-x="498" 
d="M0 240l189 189l304 -493zM32 244l400 -246l-246 399zM359 448l139 -226l-226 139zM355 413l-49 -48l126 -77zM37 50l55 56l88 -144zM69 54l50 -30l-31 49z" />
    <glyph glyph-name="uniF113" unicode="&#xf113;" 
d="M241 346v102h22v-102h-22zM345 311l72 73l16 -16l-72 -72zM395 191v22h102v-22h-102zM6 191v22h102v-22h-102zM70 368l16 16l72 -72l-16 -16zM254 124c-121 69 -237 1 -238 0l-11 19c3 2 57 34 131 35c-2 8 -3 16 -3 25c0 65 53 118 118 118s118 -53 118 -118
c0 -33 -15 -64 -37 -85c93 -20 167 24 168 25l12 -19c-3 -2 -57 -34 -131 -34c-38 0 -82 8 -127 34zM251 299c-53 0 -96 -43 -96 -96c0 -9 1 -18 3 -26c33 -3 70 -12 107 -33c14 -8 29 -15 43 -20c22 18 39 49 39 79c0 53 -43 96 -96 96zM261 76c120 -69 234 -1 235 0
l11 -19c-3 -2 -57 -35 -131 -35c-38 0 -81 8 -126 34c-120 69 -237 1 -238 0l-12 20c5 3 129 76 261 0zM261 9c120 -69 234 -2 235 -1l11 -19c-3 -2 -57 -34 -131 -34c-38 0 -81 8 -126 34c-121 69 -237 1 -238 0l-12 19c5 3 129 77 261 1z" />
    <glyph glyph-name="uniF114" unicode="&#xf114;" horiz-adv-x="506" 
d="M172 373v75h19v-75h-19zM250 348l53 53l13 -13l-53 -53zM0 258v18h75v-18h-75zM47 388l13 13l53 -53l-13 -13zM208 -5l-13 -13l-50 50l13 13zM319 -5l-13 -13l-50 50l13 13zM430 -5l-14 -13l-50 50l13 13zM190 -51l-13 -13l-50 50l13 13zM301 -51l-13 -13l-51 50l13 13z
M411 -51l-13 -13l-50 50l13 13zM439 117c37 -1 67 -30 67 -67c0 -33 -24 -60 -55 -66v20c21 6 37 24 37 46c0 26 -22 48 -49 48l-21 1l3 20c1 5 1 11 1 16c0 80 -55 134 -137 134c-52 0 -98 -28 -121 -73l-5 -10h-12h-2c-59 0 -94 -34 -94 -92c0 -7 1 -14 3 -21l5 -20
l-20 -3c-12 -2 -20 -12 -20 -24c0 -13 11 -24 24 -24h2h63v-19h-63h-1c-24 0 -44 19 -44 43c0 21 16 38 36 42c-2 8 -3 17 -3 26c0 54 29 99 88 108c-18 16 -29 39 -29 65c0 49 40 89 89 89c42 0 77 -31 86 -70c6 1 12 2 18 2c98 0 155 -69 155 -153c0 -6 0 -12 -1 -18z
M148 206c20 38 57 67 101 77c-7 31 -35 54 -68 54c-39 0 -70 -31 -70 -70c0 -27 15 -49 37 -61z" />
    <glyph glyph-name="uniF115" unicode="&#xf115;" horiz-adv-x="507" 
d="M172 372v76h19v-76h-19zM250 348l53 53l13 -13l-53 -53zM0 257v19h76v-19h-76zM47 388l13 13l53 -53l-13 -13zM120 87l37 -13l14 -37l-37 14zM231 69l37 -14l14 -36l-37 14zM333 51l36 -14l14 -36l-37 13zM305 -14l37 -14l13 -36l-36 14zM204 4l36 -13l14 -37l-37 14z
M440 116c37 -1 67 -30 67 -67c0 -36 -29 -66 -66 -67v19c26 1 47 22 47 48s-22 49 -49 49h-20l2 21c1 5 1 11 1 16c0 80 -54 134 -136 134c-52 0 -99 -29 -122 -74l-5 -10h-11h-3c-59 0 -94 -34 -94 -92c0 -7 1 -14 3 -21l5 -19l-20 -4c-12 -2 -20 -12 -20 -24
c0 -13 11 -24 24 -24h2h73v-19h-73h-1c-24 0 -44 19 -44 43c0 21 16 38 36 42c-2 8 -3 17 -3 26c0 54 29 100 88 109c-18 16 -28 39 -28 65c0 49 39 88 88 88c42 0 77 -29 86 -69c6 1 13 1 19 1c98 0 155 -68 155 -152c0 -6 0 -13 -1 -19zM148 205c20 38 57 67 101 78
c-7 31 -35 54 -68 54c-39 0 -70 -31 -70 -70c0 -27 15 -50 37 -62z" />
    <glyph glyph-name="uniF116" unicode="&#xf116;" 
d="M174 372v76h19v-76h-19zM252 347l54 54l14 -13l-54 -54zM0 255v19h76v-19h-76zM47 388l13 13l54 -54l-13 -13zM444 113c38 -1 68 -31 68 -68s-31 -67 -69 -67h-1h-74v18h74h2c27 1 49 22 49 49s-22 49 -49 49l-21 1l3 20c1 5 1 11 1 17c0 81 -56 135 -138 135
c-52 0 -99 -28 -123 -74l-6 -10h-11h-3c-59 0 -94 -36 -94 -94c0 -7 0 -14 2 -21l5 -19l-19 -4c-12 -2 -21 -12 -21 -24c0 -13 11 -25 25 -25h2h98v-18h-98h-2c-24 0 -44 19 -44 43c0 21 16 39 36 43c-2 8 -3 16 -3 25c0 55 30 100 90 110c-18 16 -29 40 -29 66
c0 49 40 89 89 89c43 0 78 -30 87 -70c6 1 13 2 19 2c99 0 156 -69 156 -154c0 -6 0 -13 -1 -19zM150 203c21 39 57 67 101 78c-7 31 -35 55 -68 55c-39 0 -71 -32 -71 -71c0 -27 16 -50 38 -62zM188 108v-26h26v-19h-26v-26h-19v26h-26v19h26v26h19zM336 80v-26h26v-19h-26
v-26h-18v26h-26v19h26v26h18zM265 9v-26h26v-18h-26v-26h-18v26h-26v18h26v26h18z" />
    <glyph glyph-name="uniF117" unicode="&#xf117;" 
d="M174 372v76h19v-76h-19zM252 347l54 54l13 -13l-54 -54zM0 256v18h76v-18h-76zM47 388l13 13l54 -54l-13 -13zM316 149l-38 -83h41l-87 -130l10 102h-50l37 111h87zM444 113c37 -1 68 -30 68 -67s-31 -68 -69 -68h-1h-75v19h75h2c27 1 49 22 49 49s-23 49 -50 49h-20
l2 21c1 5 1 10 1 16c0 81 -56 135 -138 135c-52 0 -98 -28 -122 -74l-6 -10h-11h-3c-59 0 -94 -35 -94 -93c0 -7 0 -15 2 -22l5 -19l-19 -3c-12 -2 -21 -13 -21 -25c0 -13 10 -24 24 -24h3h98v-19h-98h-2c-24 0 -44 19 -44 43c0 21 16 39 36 43c-2 8 -3 17 -3 26
c0 55 30 100 90 110c-18 16 -30 39 -30 65c0 49 41 89 90 89c43 0 78 -29 87 -69c6 1 12 1 18 1c99 0 157 -69 157 -154c0 -6 0 -13 -1 -19zM150 203c21 39 57 67 101 78c-7 31 -35 55 -68 55c-39 0 -71 -32 -71 -71c0 -27 16 -50 38 -62z" />
    <glyph glyph-name="uniF118" unicode="&#xf118;" horiz-adv-x="306" 
d="M306 249l-209 -313l24 199h-121l90 313h207l-89 -199h98zM25 153h96h21l-3 -21l-14 -120l146 218h-63h-29l12 27l77 172h-164z" />
    <glyph glyph-name="uniF119" unicode="&#xf119;" horiz-adv-x="278" 
d="M278 249l-209 -313l52 227h-121l222 285l-42 -199h98zM121 181v0h23l-5 -23l-29 -127l133 199h-63h-24l5 23l26 119l-149 -191h83z" />
    <glyph glyph-name="uniF11A" unicode="&#xf11a;" horiz-adv-x="306" 
d="M306 249l-209 -313l24 199h-121l90 313h207l-89 -199h98z" />
    <glyph glyph-name="uniF11B" unicode="&#xf11b;" horiz-adv-x="278" 
d="M278 249l-209 -313l52 227h-121l222 285l-42 -199h98z" />
    <glyph glyph-name="uniF11C" unicode="&#xf11c;" horiz-adv-x="486" 
d="M282 448c117 -25 204 -129 204 -253c0 -143 -116 -259 -259 -259c-98 0 -183 54 -227 134c30 -13 64 -21 99 -21c133 0 241 109 241 242c0 60 -22 115 -58 157z" />
    <glyph glyph-name="uniF11D" unicode="&#xf11d;" horiz-adv-x="486" 
d="M282 448c117 -25 204 -129 204 -253c0 -143 -116 -259 -259 -259c-98 0 -183 54 -227 134c30 -13 64 -21 99 -21c133 0 241 109 241 242c0 60 -22 115 -58 157zM227 -45c132 0 240 108 240 240c0 94 -56 178 -138 217c20 -37 30 -78 30 -121c0 -144 -116 -261 -260 -261
c-17 0 -34 2 -51 5c45 -50 110 -80 179 -80z" />
    <glyph glyph-name="uniF11E" unicode="&#xf11e;" horiz-adv-x="507" 
d="M440 70c37 -1 67 -30 67 -67s-30 -67 -68 -67h-1h-150h-2h-3h-136h-2h-2h-98h-1c-24 0 -44 19 -44 43c0 21 16 38 36 42c-2 8 -4 17 -4 26c0 61 38 111 113 111h2c26 50 79 83 139 83c98 0 155 -68 155 -152c0 -6 0 -13 -1 -19zM440 -46c27 1 48 23 48 49s-22 49 -49 49
h-20l2 20c1 5 1 11 1 17c0 80 -54 134 -136 134c-52 0 -99 -29 -122 -74l-5 -10h-12h-2c-59 0 -94 -34 -94 -92c0 -7 1 -14 3 -21l4 -19l-19 -4c-12 -2 -21 -12 -21 -24c0 -13 12 -25 25 -25c1 0 1 1 2 1h98c1 0 1 -1 2 -1s1 1 2 1h136c1 0 2 -1 3 -1s1 1 2 1h150
c1 0 1 -1 2 -1zM36 289c-19 0 -35 16 -35 35c0 17 12 32 29 35v9c0 44 35 80 79 80c34 0 64 -22 75 -52c10 7 22 11 35 11c33 0 60 -26 60 -59s-27 -59 -60 -59h-183zM34 340c-8 -1 -14 -8 -14 -16c0 -9 7 -17 16 -17h183c23 0 41 18 41 41s-18 41 -41 41
c-9 0 -17 -3 -24 -8l-20 -15l-8 23c-9 24 -33 41 -58 41c-34 0 -61 -28 -61 -62c0 -2 1 -4 1 -7l2 -18z" />
    <glyph glyph-name="uniF11F" unicode="&#xf11f;" 
d="M257 314c67 0 121 -55 121 -122s-54 -121 -121 -121s-122 54 -122 121c0 57 40 105 93 118c9 2 19 4 29 4v0v0zM257 90c57 0 102 45 102 102s-45 103 -102 103v-205zM248 338v110h18v-110h-18zM248 -62v110h18v-110h-18zM444 19l-13 -13l-78 78l13 13zM402 183v19h110
v-19h-110zM353 302l78 78l13 -13l-78 -78zM38 221v-19h20v-19h-20v-20h-18v20h-20v19h20v19h18zM91 94v-13h12v-9h-12v-13h-10v13h-12v9h12v13h10zM91 336v-13h12v-9h-12v-13h-10v13h-12v9h12v13h10zM166 18v-6h5v-9h-5v-6h-10v6h-6v9h6v6h10zM159 373v6h-5v9h5v6h10v-6h5
v-9h-5v-6h-10z" />
    <glyph glyph-name="uniF120" unicode="&#xf120;" 
d="M444 113c38 -1 68 -31 68 -68s-31 -67 -69 -67h-1h-151h-2h-3h-137h-2h-2h-99h-2c-24 0 -44 19 -44 43c0 21 16 39 36 43c-2 8 -3 16 -3 25c0 55 30 100 90 110c-18 16 -29 40 -29 66c0 49 40 89 89 89c43 0 78 -30 87 -70c6 1 13 2 19 2c99 0 156 -69 156 -154
c0 -6 0 -13 -1 -19zM112 265c0 -27 16 -50 38 -62c21 39 57 67 101 78c-7 31 -35 55 -68 55c-39 0 -71 -32 -71 -71zM444 -4c27 1 49 22 49 49s-22 49 -49 49l-21 1l3 20c1 5 1 11 1 17c0 81 -56 135 -138 135c-52 0 -99 -28 -123 -74l-6 -10h-11h-3c-59 0 -94 -36 -94 -94
c0 -7 0 -14 2 -21l5 -19l-19 -4c-12 -2 -21 -12 -21 -24c0 -13 11 -25 25 -25h2h99h2h2h137h3h2h151h2zM174 372v76h19v-76h-19zM252 347l54 54l14 -13l-54 -54zM0 255v19h76v-19h-76zM47 388l13 13l54 -54l-13 -13z" />
    <glyph glyph-name="uniF121" unicode="&#xf121;" 
d="M444 275c38 -1 68 -30 68 -67s-31 -68 -69 -68h-1h-151h-2h-3h-137h-3h-2h-99h-1c-24 0 -44 19 -44 43c0 21 16 39 36 43c-2 8 -3 17 -3 26c0 62 38 112 114 112h2c26 50 79 84 140 84c99 0 156 -69 156 -154c0 -6 0 -13 -1 -19zM444 158c27 1 49 23 49 50s-22 49 -49 49
h-21l2 21c1 5 2 10 2 16c0 81 -55 135 -138 135c-52 0 -100 -28 -124 -74l-5 -10h-11h-3c-59 0 -95 -35 -95 -93c0 -7 1 -15 3 -22l5 -19l-20 -4c-12 -2 -20 -12 -20 -24c0 -13 10 -25 24 -25c1 0 1 1 2 1h99c1 0 2 -1 3 -1s1 1 2 1h137c1 0 2 -1 3 -1s1 1 2 1h151
c1 0 1 -1 2 -1zM75 86v18h345v-18h-345zM122 30v18h344v-18h-344z" />
    <glyph glyph-name="uniF122" unicode="&#xf122;" 
d="M444 275c38 -1 68 -30 68 -67s-31 -68 -69 -68h-1h-151h-2h-3h-137h-2h-3h-99h-1c-24 0 -44 19 -44 43c0 21 16 39 36 43c-2 8 -3 17 -3 26c0 62 38 112 114 112h2c26 50 79 84 140 84c99 0 156 -69 156 -154c0 -6 0 -13 -1 -19zM444 158c27 1 49 23 49 50s-22 49 -49 49
h-21l2 21c1 5 2 10 2 16c0 81 -55 135 -138 135c-52 0 -100 -28 -124 -74l-5 -10h-11h-3c-59 0 -95 -35 -95 -93c0 -7 1 -15 3 -22l5 -19l-20 -4c-12 -2 -20 -12 -20 -24c0 -13 10 -25 24 -25c1 0 1 1 2 1h99c1 0 2 -1 3 -1s1 1 2 1h137c1 0 2 -1 3 -1s1 1 2 1h151
c1 0 1 -1 2 -1zM258 86l81 30l93 -31l-6 -18l-87 29l-80 -30l-91 29l-81 -28l-5 18l86 29zM258 30l81 30l93 -31l-6 -17l-87 28l-80 -29l-91 28l-81 -27l-5 17l86 29z" />
    <glyph glyph-name="uniF123" unicode="&#xf123;" 
d="M215 151l-13 -13l-51 50l13 14zM327 151l-13 -13l-51 50l13 14zM439 151l-14 -14l-50 51l13 14zM196 104l-13 -13l-51 51l13 13zM308 104l-13 -13l-51 51l13 13zM420 104l-13 -13l-51 51l13 13zM444 275c38 -1 68 -30 68 -67c0 -33 -23 -61 -55 -67v19c21 6 36 25 36 48
c0 27 -22 49 -49 49h-21l2 21c1 5 2 10 2 16c0 81 -55 135 -138 135c-52 0 -100 -28 -124 -74l-5 -10h-11h-3c-59 0 -95 -35 -95 -93c0 -7 1 -15 3 -22l5 -19l-20 -4c-12 -2 -20 -12 -20 -24c0 -13 10 -25 24 -25c1 0 1 1 2 1h63v-19h-63h-1c-24 0 -44 19 -44 43
c0 21 16 39 36 43c-2 8 -3 17 -3 26c0 62 38 112 114 112h2c26 50 79 84 140 84c99 0 156 -69 156 -154c0 -6 0 -13 -1 -19z" />
    <glyph glyph-name="uniF124" unicode="&#xf124;" 
d="M452 407c33 0 60 -27 60 -60s-27 -60 -60 -60h-185h-1c-31 -10 -54 -36 -60 -68c3 0 5 1 8 1c32 0 58 -26 58 -58s-26 -58 -58 -58h-180c-19 0 -34 15 -34 34c0 17 13 31 29 34c0 3 -1 7 -1 10c0 23 10 43 25 57c16 116 116 205 236 205c8 0 16 0 24 -1c9 3 18 5 28 5
c35 0 64 -22 75 -53c10 7 23 12 36 12zM286 427c-105 -1 -192 -76 -213 -175c9 4 19 6 29 7c21 75 86 132 165 141c5 10 11 19 19 27zM261 358c0 3 -1 6 -1 9c0 5 0 9 1 14c-67 -11 -121 -59 -141 -123c10 -2 20 -5 28 -11c13 45 47 81 90 97c5 7 14 12 23 14zM214 202
c-9 0 -17 -3 -24 -8l-20 -14l-8 22c-9 23 -31 39 -56 39c-33 0 -60 -26 -60 -59c0 -2 1 -5 1 -8l2 -17l-17 -3c-8 -1 -14 -8 -14 -16c0 -9 7 -16 16 -16h180c22 0 40 18 40 40s-18 40 -40 40zM187 214c3 36 26 66 56 82c-7 6 -12 16 -12 26c-34 -17 -59 -50 -68 -88
c7 -7 12 -16 16 -26c3 2 5 5 8 6zM452 305c23 0 41 19 41 42s-18 41 -41 41c-9 0 -18 -3 -25 -8l-20 -15l-8 24c-9 24 -32 40 -58 40c-34 0 -62 -28 -62 -62v-7l2 -18l-17 -3c-8 -1 -14 -9 -14 -17c0 -9 8 -17 17 -17h185z" />
    <glyph glyph-name="uniF125" unicode="&#xf125;" 
d="M147 201l37 -14l14 -37l-37 14zM259 182l37 -14l14 -36l-37 14zM361 163l37 -13l14 -37l-37 14zM333 98l37 -14l14 -36l-37 14zM231 117l37 -14l14 -37l-37 14zM444 275c38 -1 68 -30 68 -67s-31 -68 -69 -68v0v18h1c27 1 49 23 49 50s-22 49 -49 49h-21l2 21
c1 5 2 10 2 16c0 81 -55 135 -138 135c-52 0 -100 -28 -124 -74l-5 -10h-11h-3c-59 0 -95 -35 -95 -93c0 -7 1 -15 3 -22l5 -19l-20 -4c-12 -2 -20 -12 -20 -24c0 -13 10 -25 24 -25c1 0 1 1 2 1h71v-19h-71h-1c-24 0 -44 19 -44 43c0 21 16 39 36 43c-2 8 -3 17 -3 26
c0 62 38 112 114 112h2c26 50 79 84 140 84c99 0 156 -69 156 -154c0 -6 0 -13 -1 -19z" />
    <glyph glyph-name="uniF126" unicode="&#xf126;" 
d="M425 448l87 -87l-4 -6c-2 -4 -4 -6 -7 -9c-19 -19 -50 -19 -69 0l-5 4l-186 -186l73 -73c18 -18 18 -47 0 -65l-90 -90l-224 224l90 90c18 18 47 18 65 0l73 -73l186 186l-4 5c-19 19 -19 50 0 69c3 3 5 5 9 7zM301 78l-159 159c-11 11 -28 11 -39 0l-77 -77l40 -40
l63 63l13 -13l-63 -63l40 -39l62 63l14 -14l-63 -62l39 -40l63 63l13 -13l-63 -63l40 -40l77 77c11 11 11 28 0 39zM445 359c12 -12 31 -12 43 0l-65 65c-12 -12 -12 -31 0 -43z" />
    <glyph glyph-name="uniF127" unicode="&#xf127;" 
d="M188 260v-26h26v-18h-26v-26h-19v26h-26v18h26v26h19zM337 232v-26h26v-18h-26v-26h-19v26h-26v18h26v26h19zM266 162v-26h26v-19h-26v-26h-19v26h-26v19h26v26h19zM444 275c38 -1 68 -30 68 -67s-31 -68 -69 -68h-1h-74v19h74c1 0 1 -1 2 -1c27 1 49 23 49 50
s-22 49 -49 49h-21l2 21c1 5 2 10 2 16c0 81 -55 135 -138 135c-52 0 -100 -28 -124 -74l-5 -10h-11h-3c-59 0 -95 -35 -95 -93c0 -7 1 -15 3 -22l5 -19l-20 -4c-12 -2 -20 -12 -20 -24c0 -13 10 -25 24 -25c1 0 1 1 2 1h98v-19h-98h-1c-24 0 -44 19 -44 43
c0 21 16 39 36 43c-2 8 -3 17 -3 26c0 62 38 112 114 112h2c26 50 79 84 140 84c99 0 156 -69 156 -154c0 -6 0 -13 -1 -19z" />
    <glyph glyph-name="uniF128" unicode="&#xf128;" 
d="M314 301l-37 -82h41l-88 -131l10 102h-50l37 111h87zM444 275c38 -1 68 -30 68 -67s-31 -68 -69 -68h-1h-74v19h74c1 0 1 -1 2 -1c27 1 49 23 49 50s-22 49 -49 49h-21l2 21c1 5 2 10 2 16c0 81 -55 135 -138 135c-52 0 -100 -28 -124 -74l-5 -10h-11h-3
c-59 0 -95 -35 -95 -93c0 -7 1 -15 3 -22l5 -19l-20 -4c-12 -2 -20 -12 -20 -24c0 -13 10 -25 24 -25c1 0 1 1 2 1h98v-19h-98h-1c-24 0 -44 19 -44 43c0 21 16 39 36 43c-2 8 -3 17 -3 26c0 62 38 112 114 112h2c26 50 79 84 140 84c99 0 156 -69 156 -154
c0 -6 0 -13 -1 -19z" />
    <glyph glyph-name="uniF129" unicode="&#xf129;" 
d="M350 55h162v-18h-512v18h160c-3 10 -5 22 -5 33c0 55 45 100 100 100s101 -45 101 -100c0 -11 -2 -23 -6 -33zM331 55c4 10 6 21 6 33c0 45 -37 82 -82 82s-81 -37 -81 -82c0 -12 2 -23 6 -33h151zM325 334l-69 -70l-69 70l13 13l46 -45v146h19v-148l47 47z" />
    <glyph glyph-name="uniF12A" unicode="&#xf12a;" 
d="M247 135v87h18v-87h-18zM336 106l61 61l13 -13l-61 -62zM378 3v19h87v-19h-87zM47 3v19h87v-19h-87zM102 154l13 13l61 -61l-13 -14zM350 -19h162v-19h-512v19h160c-3 10 -5 21 -5 32c0 55 45 101 100 101s101 -46 101 -101c0 -11 -2 -22 -6 -32zM331 -19c4 10 6 20 6 32
c0 45 -37 82 -82 82s-81 -37 -81 -82c0 -12 2 -22 6 -32h151zM246 410l-46 -45l-13 13l69 70l69 -69l-13 -14l-47 47v-148h-19v146z" />
    <glyph glyph-name="uniF12B" unicode="&#xf12b;" 
d="M142 205l-81 46l83 49l-26 90l91 -24l47 82l48 -83l91 26l-25 -94l80 -45l-84 -48l27 -91l-93 24l-44 -80l-48 83l-91 -27zM144 140l54 16l-1 3c-16 10 -29 23 -38 39zM256 94l30 52c-10 -3 -20 -4 -30 -4s-20 2 -29 4l-1 -1zM366 139l-16 55v0c-11 -17 -26 -31 -44 -40
v-1zM412 252l-47 25h-1v0c2 -8 3 -16 3 -24c0 -10 -2 -20 -5 -30zM369 365l-55 -16l1 -2c17 -11 30 -26 39 -44zM256 411l-28 -50h1c9 2 18 3 27 3c11 0 20 -1 30 -4zM256 347c-52 0 -95 -42 -95 -94s43 -94 95 -94s94 42 94 94s-42 94 -94 94zM144 364l16 -54
c10 17 25 30 42 40v1zM148 280l-50 -28l49 -28l1 3c-2 8 -4 17 -4 26c0 10 2 18 4 27zM255 -7l-3 1l-250 81l5 17l248 -79l249 80l6 -18zM0 -53v19h512v-19h-512z" />
    <glyph glyph-name="uniF12C" unicode="&#xf12c;" 
d="M402 183v18h110v-18h-110zM352 302l78 78l14 -14l-79 -78zM352 82l13 14l79 -78l-14 -14zM247 -64v110h18v-110h-18zM247 338v110h18v-110h-18zM160 82l-78 -78l-14 14l78 78zM160 301l-14 -13l-78 78l14 14zM256 313c67 0 122 -55 122 -122s-55 -121 -122 -121
s-122 54 -122 121s55 122 122 122zM0 183v18h110v-18h-110z" />
    <glyph glyph-name="uniF12D" unicode="&#xf12d;" 
d="M256 313c67 0 122 -55 122 -122s-55 -121 -122 -121s-122 54 -122 121s55 122 122 122zM256 88c57 0 103 46 103 103s-46 104 -103 104s-103 -47 -103 -104s46 -103 103 -103zM247 338v110h18v-110h-18zM247 -64v110h18v-110h-18zM352 302l78 78l14 -14l-78 -78zM160 82
l-78 -78l-14 14l79 78zM402 183v18h110v-18h-110zM0 183v18h110v-18h-110zM444 18l-14 -14l-78 78l14 14zM68 366l14 14l78 -78l-14 -14z" />
    <glyph glyph-name="uniF12E" unicode="&#xf12e;" horiz-adv-x="217" 
d="M176 129c25 -20 41 -51 41 -85c0 -60 -49 -108 -109 -108s-108 48 -108 108c0 35 18 67 44 87v251c0 36 30 66 66 66s66 -30 66 -66v-253zM108 -46c50 0 90 40 90 90c0 31 -16 59 -40 75l-1 263c0 26 -21 48 -47 48s-48 -22 -48 -48v-19h65v-18h-65v-28h39v-18h-39v-28
h65v-18h-65v-28h39v-19h-39v-27h65v-19h-65v-39c-26 -16 -44 -44 -44 -77c0 -50 40 -90 90 -90z" />
    <glyph glyph-name="uniF12F" unicode="&#xf12f;" 
d="M256 448c141 0 256 -115 256 -256s-115 -256 -256 -256s-256 115 -256 256s115 256 256 256zM256 -45c63 0 120 25 163 65l-46 46l6 6c30 31 49 74 49 120c0 95 -77 172 -172 172s-172 -77 -172 -172c0 -48 20 -92 52 -123v0l9 -9l-46 -46c42 -37 97 -59 157 -59zM432 33
c38 42 61 98 61 159c0 131 -106 237 -237 237s-237 -106 -237 -237c0 -64 26 -122 67 -165l32 32c-33 35 -54 81 -54 133c0 106 86 192 192 192s192 -86 192 -192c0 -49 -18 -93 -48 -127zM311 256l-14 15l57 15l-16 -57l-14 14l-49 -49v-4c0 -10 -9 -19 -19 -19
c-1 0 -3 1 -4 1l-36 -37c2 -4 3 -8 3 -13c0 -15 -12 -28 -27 -28s-28 13 -28 28s13 28 28 28c4 0 7 -1 10 -2l37 36c-1 2 -1 4 -1 6c0 10 8 19 18 19c2 0 4 0 6 -1z" />
    <glyph glyph-name="uniF130" unicode="&#xf130;" horiz-adv-x="464" 
d="M231 346c-128 0 -231 23 -231 51s103 51 231 51s231 -23 231 -51s-103 -51 -231 -51zM231 428c-119 0 -190 -19 -208 -31c18 -12 89 -31 208 -31s190 19 208 31c-18 12 -89 31 -208 31zM464 345c-1 0 -52 -13 -79 -59c-19 -33 -21 -76 -5 -127c52 -172 -18 -214 -21 -216
l-13 -7l-2 15c0 1 -15 109 -150 179c-212 110 -194 227 -193 232l19 -4l-10 2l10 -2c0 -1 -15 -108 183 -211c112 -58 147 -140 157 -176c14 20 35 71 1 182c-17 57 -14 106 8 144c31 53 89 66 91 67z" />
    <glyph glyph-name="uniF131" unicode="&#xf131;" horiz-adv-x="509" 
d="M255 411c-10 0 -18 8 -18 18s8 19 18 19s19 -9 19 -19s-9 -18 -19 -18zM343 156c-19 24 -47 41 -79 44c0 -5 1 -36 1 -187c0 -40 24 -58 46 -58s46 18 46 58h19c0 -50 -33 -77 -65 -77c-17 0 -33 7 -45 20c-13 14 -20 34 -20 57c0 158 -1 184 -1 187
c-30 -2 -55 -17 -74 -38c-20 23 -51 38 -84 38c-36 0 -67 -16 -87 -42c6 135 118 243 255 243c133 0 242 -102 254 -232c-20 20 -47 32 -77 32c-36 0 -69 -18 -89 -45z" />
    <glyph glyph-name="uniF132" unicode="&#xf132;" horiz-adv-x="509" 
d="M343 156c-19 24 -47 41 -79 44c0 -5 1 -36 1 -187c0 -40 24 -58 46 -58s46 18 46 58h19c0 -50 -33 -77 -65 -77c-17 0 -33 7 -45 20c-13 14 -20 34 -20 57c0 158 -1 184 -1 187c-30 -2 -56 -17 -74 -38c-20 23 -51 39 -84 39c-35 0 -67 -17 -87 -43
c6 135 118 243 255 243c133 0 242 -102 254 -232c-20 19 -47 32 -77 32c-36 0 -69 -18 -89 -45zM255 219c33 0 64 -13 88 -35c24 22 56 35 89 35c18 0 35 -3 51 -10c-12 43 -35 81 -68 111c-44 40 -101 62 -160 62c-111 0 -204 -76 -230 -179c19 10 40 16 62 16
c31 0 61 -11 84 -31c23 20 53 31 84 31zM237 429c0 12 6 19 18 19s19 -7 19 -19s-7 -18 -19 -18s-18 6 -18 18z" />
    <glyph glyph-name="uniF133" unicode="&#xf133;" 
d="M443 140h-1h-78l93 -162h-401l94 162h-1h-3h-2h-99h-1c-24 0 -44 19 -44 43c0 21 16 39 36 43c-2 8 -3 17 -3 26c0 62 38 112 114 112h2c26 50 79 84 140 84c99 0 156 -69 156 -154c0 -6 0 -13 -1 -19c38 -1 68 -30 68 -67s-31 -68 -69 -68zM425 -4l-168 292l-168 -292
h336zM353 158h89h2c27 1 49 23 49 50s-22 49 -49 49h-21l2 21c1 5 2 10 2 16c0 81 -55 135 -138 135c-52 0 -100 -28 -124 -74l-5 -10h-11h-3c-59 0 -95 -35 -95 -93c0 -7 1 -15 3 -22l5 -19l-20 -4c-12 -2 -20 -12 -20 -24c0 -13 10 -25 24 -25h2h99h3h2h12l96 167zM244 78
v138h23v-138h-23zM239 37c0 12 5 17 17 17s17 -5 17 -17s-5 -17 -17 -17s-17 5 -17 17z" />
    <glyph glyph-name="uniF134" unicode="&#xf134;" horiz-adv-x="223" 
d="M130 77c0 -7 -3 -13 -9 -16v-90c6 -3 9 -9 9 -16c0 -10 -8 -19 -18 -19s-19 9 -19 19c0 7 3 13 9 16v90c-6 3 -9 9 -9 16s3 14 9 17v66c-19 36 -48 69 -70 101h-1v1c-18 25 -31 49 -31 74c0 62 50 112 112 112s111 -50 111 -112c0 -57 -64 -100 -102 -175v-67
c6 -3 9 -10 9 -17zM112 429c-35 0 -65 -19 -81 -47h162c-16 28 -46 47 -81 47zM19 336c0 -18 10 -37 24 -58h137c15 21 25 39 25 58c0 9 -1 19 -4 27h-178c-3 -8 -4 -18 -4 -27zM112 182c15 26 31 48 47 68c3 4 5 8 8 11h-112c5 -6 9 -12 14 -19c15 -19 31 -39 43 -60z" />
    <glyph glyph-name="uniF135" unicode="&#xf135;" horiz-adv-x="224" 
d="M112 448c62 0 112 -50 112 -112c0 -23 -7 -44 -19 -62v-296h-18v98l-67 -32v-108h-19v106l-65 31v-95h-18v298c-11 17 -18 38 -18 60c0 62 50 112 112 112zM101 63v0v66l-56 -40zM36 106l59 41l-59 28v-69zM101 165v60c-6 1 -12 1 -18 3l-46 -32zM36 218l26 18
c-9 5 -18 11 -26 18v-36zM120 65l56 26l-56 41v-67zM187 107v71l-60 -28zM120 167l61 29l-43 31c-6 -1 -12 -3 -18 -3v-57zM187 215v38c-8 -7 -17 -13 -27 -18zM112 243c51 0 93 42 93 93s-42 93 -93 93s-93 -42 -93 -93s42 -93 93 -93z" />
    <glyph glyph-name="uniF136" unicode="&#xf136;" horiz-adv-x="469" 
d="M19 448c10 0 19 -9 19 -19c0 -7 -4 -13 -10 -16v-477h-19v477c-6 3 -9 9 -9 16c0 10 9 19 19 19zM55 195v201l76 -9v-183zM73 375v-159l39 5v149zM158 204v183l76 -10v-163zM177 366v-140l38 4v131zM261 214v163l76 -9v-145zM280 356v-121l39 5v111zM441 359
c42 0 33 -127 0 -127s-77 -9 -77 -9v145s35 -9 77 -9zM439 251c6 6 14 36 10 66c-2 17 -7 23 -8 23c-23 0 -43 2 -58 5v-99c16 3 37 5 56 5z" />
    <glyph glyph-name="uniF137" unicode="&#xf137;" horiz-adv-x="472" 
d="M408 372c36 0 64 -29 64 -65s-28 -64 -64 -64c-34 0 -63 27 -65 60l-123 1v-230h-5c26 0 47 -20 47 -46v-92h-19v92c0 15 -13 28 -28 28h-11c-15 0 -28 -13 -28 -28v-92h-18v92c0 26 20 46 46 46h-3v215l-82 -72c7 -10 10 -22 10 -35c0 -36 -28 -65 -64 -65
s-65 29 -65 65s29 64 65 64c16 0 30 -5 41 -15l94 81l-63 34c-12 -17 -30 -27 -52 -27c-36 0 -65 28 -65 64s29 65 65 65s64 -29 64 -65c0 -7 -1 -14 -3 -20l72 -40l127 -2c6 29 32 51 63 51zM85 337c15 0 28 7 36 18v1l7 14c1 4 3 8 3 13c0 25 -21 46 -46 46
s-46 -21 -46 -46s21 -46 46 -46zM65 136c25 0 46 21 46 46s-21 46 -46 46s-46 -21 -46 -46s21 -46 46 -46zM408 261c25 0 46 21 46 46s-21 46 -46 46c-24 0 -44 -19 -46 -43v-5c1 -24 22 -44 46 -44z" />
    <glyph glyph-name="uniF138" unicode="&#xf138;" horiz-adv-x="387" 
d="M231 248l156 -71l-7 -17l-156 70c-7 -10 -17 -16 -29 -19v-9l16 -266h-54l17 274s-1 1 -3 2c-7 2 -14 7 -19 12l-142 -93l-10 16l142 92c-4 10 -6 21 -2 32c5 15 17 27 31 31l-18 144l19 2l18 -144c3 0 7 -1 10 -2c23 -7 36 -31 31 -54zM213 251c3 14 -5 29 -19 33
c-2 1 -4 1 -6 1l-6 1l-5 -2c-9 -3 -16 -9 -19 -18c-2 -8 -1 -16 1 -20l2 -5l4 -4c3 -3 7 -6 11 -7c3 -1 6 -1 9 -1c9 0 18 4 23 12l3 5z" />
    <glyph glyph-name="uniF139" unicode="&#xf139;" 
d="M251 380c19 2 30 9 31 21c1 11 -7 23 -18 27c-16 5 -33 -7 -48 -33l-17 9c28 49 59 46 71 42c20 -6 34 -27 32 -47c-2 -21 -21 -36 -49 -39h-1h-84h-126v20h209zM449 432c35 -7 66 -48 63 -84c-1 -15 -12 -52 -78 -52h-179h-255v20h434c36 0 57 12 59 34
c2 26 -23 58 -48 63c-22 4 -40 -14 -51 -52l-19 5c20 69 58 69 74 66zM351 248c41 -5 66 -25 69 -55c3 -28 -16 -57 -44 -66c-4 -1 -10 -3 -18 -3c-22 0 -54 11 -84 64l16 10c24 -42 53 -61 80 -53c19 6 33 27 31 46c-2 20 -21 33 -52 37h-307v20h308h1zM21 429v19h112v-19
h-112zM21 162v19h177v-19h-177z" />
  </font>
</defs>
</svg>
